<svg width="288" height="50" xmlns="../../../../../external.html?link=http://www.w3.org/2000/svg"><path d="M.63 49.498V.645h30.018l.883 13.323H14.756v6.22h14.127V33.51H14.756v15.988H.63zm117.425 0L103.046 23.74 117.171.645h-15.89l-5.297 10.66-6.18-10.66H73.91l14.126 23.983-14.126 24.87h15.008l7.065-12.435 7.062 12.435h15.01zM59.783 35.286c0 2.664-1.765 4.44-3.531 4.44-2.647 0-4.413-1.776-4.413-4.44v-20.43c0-2.663 1.766-4.44 4.413-4.44 1.766 0 4.415 1.777 4.415 4.44l-.884 20.43zm-28.252-9.77c0 13.323 10.596 23.982 24.72 23.982 13.244 0 24.722-10.66 24.722-23.981C80.973 12.193 69.495.645 56.252.645c-14.125 0-24.72 11.548-24.72 24.872zM165.683 1.903v47.596h30.278V38.073h-18.924V30.46h16.084V19.99h-16.084v-6.663h18.924V1.902h-30.278zm33.115 0l10.408 47.596h11.355l5.677-27.605 5.676 27.605h10.408l11.356-47.596H243.27l-5.679 27.605-5.677-27.605h-10.408l-5.676 27.605-5.679-27.605h-11.353zm63.396 30.462l-11.356 2.855c1.893 9.52 8.517 14.279 18.925 14.279 5.676 0 10.408-1.906 14.192-5.713 1.892-2.855 3.785-6.662 3.785-10.47 0-3.808-1.893-7.615-3.785-9.518-3.784-2.856-7.569-3.808-11.355-4.759-4.73-1.905-7.57-1.905-7.57-4.76 0-1.903 1.893-3.807 4.733-3.807 2.837 0 4.731 1.904 6.623 4.759l10.408-2.855C283.955 4.759 278.278 0 270.707 0c-11.352 0-17.976 6.662-17.976 16.181 0 7.616 4.731 11.424 14.192 14.278 4.732 1.905 7.571.952 7.571 4.76 0 1.904-.947 3.808-3.787 3.808-4.729 0-7.568-1.904-8.513-6.663zM150.544 1.902V25.7L136.351 1.902h-13.246v47.596h11.353V21.893l17.032 27.605h11.355V1.902h-12.3z" fill="#6E6D6C" fill-rule="evenodd"/></svg>