<svg width="144" height="41" xmlns="http://www.w3.org/2000/svg" xmlns:xlink="../../../../../external.html?link=http://www.w3.org/1999/xlink"><defs><path id="a" d="M.108.116v32.928h5.226V.455L.108.116"/><path d="M.55 7.425v23.354h5.226V7.721L.551 7.425M3.163.18C1.77.18.59 1.158.263 2.463a1.023 1.023 0 0 0-.083.041 2.992 2.992 0 0 0 .427 1.787 2.997 2.997 0 0 0 2.556 1.452c1.568 0 2.868-1.233 2.984-2.781C6.03 1.414 4.73.181 3.163.181" id="c"/><path d="M7.256.457C3.378.457.09 4.057.09 8.039v31.234l.226-.013 5-.283v-19.02h3.92v-5.254h-3.92V7.586c0-1.1.885-1.99 1.939-1.99h2.402l.192-4.6C9.568.82 8.533.456 7.256.456m.007-.452" id="e"/><path d="M5.257 9.765V7.308c0-1.102.885-1.991 1.981-1.991.831 0 1.557.553 1.827 1.327.072.208.112.431.112.664v2.457h-3.92M7.238.517C3.234.517.032 3.779.032 7.76v9.544c0 1.304.334 2.604.944 3.735 1.094 2.03 3.076 3.52 5.602 3.52.364 0 .739-.031 1.124-.096l4.72-.72-.169-4.448H7.238c-.686 0-1.29-.35-1.645-.88a1.99 1.99 0 0 1-.336-1.11v-2.289h6.533a2.606 2.606 0 0 0 2.612-2.626V7.76c0-3.982-3.202-7.244-7.164-7.244m0-.453h-.012.024-.012" id="g"/><path d="M6.872 9.307H6.87h.002m.012 0h-.008.008m.01 0h-.008.009M3.48.101H.11v32.717h3.37V12.992h3.203c1.382 0 2.567.837 3.053 2.043.151.375.234.786.234 1.22v16.563h3.288v-16.11c0-3.686-2.782-6.948-6.364-6.948-1.012 0-2.486.127-3.414.423V.101" id="i"/><path d="M6.653 8.208h.027-.027M3.879 18.402a3.348 3.348 0 0 1-.471-1.721v-2.457c0-1.822 1.433-3.262 3.245-3.262h3.245v5.719c0 1.821-1.433 3.304-3.245 3.304a3.218 3.218 0 0 1-2.774-1.583M6.342.018c-.05 0-.102 0-.153.002C4.807.062 3.176.48 2.04.9c.035.67.07 1.164.105 2.181l.208-.012c1.39-.088 3.017-.244 4.3-.284h-.041a4.79 4.79 0 0 1 .506-.028c1.349 0 2.136.641 2.51 1.592.187.474.27 1.026.27 1.613v2.669a1.576 1.576 0 0 0-.098-.028l.099.102v.379c-.885-.254-1.686-.424-3.245-.424-3.37 0-5.646 1.834-6.369 4.489a1.177 1.177 0 0 0-.103-.022 7.427 7.427 0 0 0-.145 1.477v2.076c0 1.141.294 2.22.81 3.164 1.128 2.068 3.318 3.486 5.807 3.486 3.624 0 6.532-3.007 6.532-6.65V7.05c0-.104-.003-.21-.007-.314l.007.116v-.254c0-.202-.008-.403-.025-.602-.002.197 0 .394.008.592-.218-3.46-2.873-6.57-6.826-6.57" id="k"/><path d="M6.69.473C3.067.473.117 3.438.117 7.123v10.138a6.69 6.69 0 0 0 .815 3.213c1.121 2.053 3.283 3.438 5.76 3.438 3.35 0 6.197-2.565 6.58-5.87.017-.146.03-.294.036-.442-.126 0-1.686-.085-3.33-.212-.041 1.78-1.516 3.135-3.286 3.135-1.16 0-2.174-.6-2.736-1.537a3.333 3.333 0 0 1-.467-1.725V6.67c0-1.78 1.433-3.262 3.203-3.262 1.383 0 2.57.863 3.054 2.063a3.2 3.2 0 0 1 .233 1.198v.509l.225-.01c.908-.033 1.898-.036 3.104-.075V6.67c0-.08-.001-.161-.004-.242l-.032.003C12.924 3.073 10.085.473 6.691.473m0-.453H6.68h.01" id="m"/><path d="M14.022 9.646h-.424l-.373.453h-3.039l-.075.125a3.9 3.9 0 0 0-.148-.206L4.539 19.05c-.701 1.214-.754 1.415-.258 2.308.04.073.084.15.132.234l6.406 11.226h3.708L7.657 20.49l6.365-10.844zM.199 32.818H3.57V.186H.199v32.632z" id="o"/><path d="M3.43 9.818V6.26c0-1.822 1.433-3.304 3.245-3.304 1.342 0 2.514.851 3.003 2.057.156.385.242.806.242 1.247v3.558H3.43M6.675.02C3.29.02.518 2.583.112 5.877a.713.713 0 0 0-.042-.01c-.008.13-.011.26-.011.393v10.505c0 1.218.312 2.427.88 3.474 1.002 1.845 2.796 3.185 5.067 3.185.339 0 .69-.03 1.048-.093l4.046-.635a31.447 31.447 0 0 1-.15-2.173l-.018-.453H6.675a3.219 3.219 0 0 1-2.774-1.583 3.35 3.35 0 0 1-.47-1.722v-3.6h8.133c.927 0 1.686-.72 1.686-1.695V6.26c0-.226-.011-.45-.033-.67a1.1 1.1 0 0 0-.056.035C12.65 2.454 9.935.02 6.675.02" id="q"/><path d="M7.053.655C2.923.655.126 4.048.126 7.69v16.068h3.371V7.236c0-1.737 1.433-3.643 3.203-3.643l3.667.084c.037-.676.074-1.418.112-2.286l.001-.043c-.01.045-.022.09-.033.134C9.496 1.028 8.616.7 7.206.657a8.64 8.64 0 0 0-.153-.002m0-.453h-.097a13.819 13.819 0 0 1 .097 0" id="s"/><path id="u" d="M.108.116V1.17v-.6l5.226.338V.455L.108.116"/><path id="w" d="M3.163.18C1.597.18.3 1.413.18 2.958a.81.81 0 0 1 .084-.04C.59 1.61 1.769.633 3.164.633c1.567 0 2.867 1.233 2.983 2.781a3.016 3.016 0 0 0-.202-1.33A3.007 3.007 0 0 0 3.163.181"/><path id="y" d="M.1.176v17.017V.63l5.226.297V.473L.1.176"/><path id="A" d="M7.256.004C3.378.004.09 3.604.09 7.586v2.438V8.04C.091 4.058 3.378.457 7.256.457c1.277 0 2.312.364 2.594.539l.018-.441C9.616.385 8.566.005 7.264.004h-.008"/><path id="C" d="M7.238.064h-.012C3.228.07.032 3.329.032 7.308v7.453-7C.032 3.779 3.234.517 7.238.517c3.962 0 7.164 3.262 7.164 7.244v-.453a7.267 7.267 0 0 0-.65-3.016C12.62 1.806 10.137.068 7.25.064h-.012"/><path id="E" d="M3.481.101H.11V15.05.555h3.37V.1"/><path id="G" d="M3.515.02H3.49C2.558.022 1.246.13.326.377a5.079 5.079 0 0 0-.225.066v.453C1.028.6 2.503.473 3.515.473c3.582 0 6.363 3.261 6.363 6.947v-.453a7.366 7.366 0 0 0-.66-3.047C8.187 1.656 6.051.02 3.514.02"/><path id="I" d="M6.653.054C3.103.054.767 2.089.18 4.974a.94.94 0 0 1 .103.021C1.007 2.341 3.282.507 6.653.507c1.56 0 2.36.17 3.245.423V.551a14.157 14.157 0 0 1-.1-.102C8.958.212 8.164.056 6.68.054h-.027"/><path id="K" d="M4.54.018c-.051 0-.102 0-.154.002C2.996.062 1.352.485.214.91l.022.444c1.137-.42 2.768-.84 4.15-.881L4.54.47c3.953 0 6.608 3.11 6.827 6.57a9.696 9.696 0 0 1-.008-.591 7.35 7.35 0 0 0-.632-2.433C9.685 1.725 7.468.018 4.54.018"/><path id="M" d="M.107.168c.005.105.008.21.008.314V.284A6.593 6.593 0 0 1 .107.168"/><path id="O" d="M6.69.02h-.01C3.06.025.116 2.988.116 6.67v3.971-3.518c0-3.685 2.95-6.65 6.575-6.65 3.394 0 6.233 2.6 6.58 5.958l.032-.003a6.631 6.631 0 0 0-.58-2.49C11.68 1.623 9.355.02 6.69.02"/><path id="Q" d="M3.683.132H.27L.047.504A3.9 3.9 0 0 1 .196.71L.27.585h3.04l.373-.453"/><path id="S" d="M3.57.186H.199v14.872V.64H3.57V.186"/><path id="U" d="M6.675.02C3.14.02.271 2.816.07 6.32a.713.713 0 0 1 .042.01C.518 3.036 3.29.473 6.675.473c3.26 0 5.974 2.434 6.486 5.605a1.1 1.1 0 0 1 .056-.035 6.728 6.728 0 0 0-.564-2.112C11.613 1.627 9.324.02 6.675.02"/><path id="W" d="M7.053.202h-.097C2.878.257.126 3.625.126 7.237v.454-.001C.126 4.05 2.923.656 7.053.656c.05 0 .101 0 .153.002 1.41.042 2.29.37 3.241.825l.033-.134.013-.297C9.523.585 8.639.246 7.206.204L7.159.203h-.106"/></defs><g fill="none" fill-rule="evenodd"><path d="M.784 34.97a.339.339 0 0 1-.338-.34V1.249a.34.34 0 0 1 .338-.34h.022l5.226.34c.178.011.316.16.316.339V34.63a.34.34 0 0 1-.338.34H.784" fill="#6A6866"/><path d="M.784 1.249l5.226.339V34.63H.784V1.249m0-.68a.682.682 0 0 0-.676.68v33.38c0 .376.303.68.676.68H6.01a.678.678 0 0 0 .676-.68V1.589A.678.678 0 0 0 6.054.91L.828.571.784.569M9.339 34.97a.339.339 0 0 1-.338-.34V10.822a.34.34 0 0 1 .338-.34l5.245.298a.34.34 0 0 1 .319.34v23.51a.34.34 0 0 1-.338.34H9.339m2.613-25.036c-1.836 0-3.33-1.502-3.33-3.348 0-1.846 1.494-3.347 3.33-3.347s3.33 1.501 3.33 3.347-1.494 3.348-3.33 3.348" fill="#6A6866"/><path d="M11.952 3.579c1.644 0 2.992 1.355 2.992 3.007 0 1.653-1.348 3.008-2.992 3.008-1.643 0-2.992-1.355-2.992-3.008 0-1.652 1.349-3.007 2.992-3.007m-2.613 7.243l5.226.297v23.51H9.339V10.823M11.952 2.9c-2.023 0-3.668 1.654-3.668 3.687 0 2.034 1.645 3.688 3.668 3.688S15.62 8.62 15.62 6.586c0-2.033-1.645-3.687-3.668-3.687m-2.613 7.244a.681.681 0 0 0-.676.68V34.63c0 .375.303.68.676.68h5.226a.678.678 0 0 0 .676-.68V11.12c0-.361-.28-.66-.638-.68l-5.226-.296-.038-.001m8.555 30.376a.337.337 0 0 1-.338-.34V8.492c0-4.22 3.506-7.922 7.502-7.922 1.417 0 2.517.417 2.8.608a.34.34 0 0 1 .151.297l-.21 5.04a.339.339 0 0 1-.338.326h-2.403c-.882 0-1.6.741-1.6 1.651v6.777h3.581a.34.34 0 0 1 .338.34v5.253c0 .188-.151.34-.338.34h-3.581v18.68c0 .18-.14.33-.32.34l-5.244.297" fill="#6A6866"/><path d="M25.058.91c1.307 0 2.36.381 2.613.55l-.21 5.042h-2.403c-1.053 0-1.938.89-1.938 1.99v7.117h3.92v5.253h-3.92v19.02l-5.226.297V8.492c0-3.981 3.287-7.582 7.164-7.582m0-.68c-4.176 0-7.84 3.861-7.84 8.262V40.18a.675.675 0 0 0 .676.68l.038-.001 5.226-.297a.678.678 0 0 0 .638-.678V21.542h3.243a.678.678 0 0 0 .676-.68V15.61a.678.678 0 0 0-.676-.68h-3.243V8.493c0-.71.578-1.31 1.262-1.31h2.403c.362 0 .66-.288.675-.652l.21-5.04a.68.68 0 0 0-.3-.595C27.634.62 26.435.23 25.058.23m11.267 35.09c-4.253 0-6.885-3.943-6.885-7.595v-9.997c0-4.182 3.385-7.584 7.545-7.584 4.137 0 7.502 3.402 7.502 7.584v5.083a2.962 2.962 0 0 1-2.951 2.966h-6.194v1.948c0 .91.737 1.651 1.643 1.651H42c.181 0 .33.144.337.327l.17 4.448a.34.34 0 0 1-.288.349l-4.72.72c-.391.065-.788.1-1.174.1m2.26-15.476v-2.116c0-.911-.718-1.652-1.6-1.652a1.65 1.65 0 0 0-1.643 1.652v2.116h3.243" fill="#6A6866"/><path d="M36.985 10.484c3.961 0 7.164 3.261 7.164 7.244v5.083a2.606 2.606 0 0 1-2.613 2.626h-6.532v2.288c0 1.101.885 1.99 1.98 1.99H42l.168 4.449-4.72.72a6.79 6.79 0 0 1-1.123.095c-3.934 0-6.547-3.61-6.547-7.254v-9.997c0-3.983 3.203-7.244 7.207-7.244m-1.981 9.7h3.92v-2.456c0-1.102-.886-1.991-1.94-1.991-1.095 0-1.98.89-1.98 1.99v2.457m1.98-10.38c-4.346 0-7.882 3.555-7.882 7.924v9.997c0 3.816 2.761 7.934 7.223 7.934.404 0 .82-.035 1.234-.105l4.71-.718a.678.678 0 0 0 .575-.698l-.169-4.448a.678.678 0 0 0-.675-.654h-5.015a1.31 1.31 0 0 1-1.305-1.311v-1.608h5.856c1.814 0 3.289-1.483 3.289-3.306v-5.083c0-4.37-3.517-7.924-7.84-7.924m-1.305 9.7v-1.776a1.31 1.31 0 0 1 1.305-1.312c.684 0 1.262.6 1.262 1.312v1.777H35.68M57.971 34.97a.339.339 0 0 1-.338-.34V18.067c0-1.612-1.323-2.923-2.949-2.923H51.82V34.63c0 .187-.15.34-.338.34H48.11a.339.339 0 0 1-.338-.34V1.46a.34.34 0 0 1 .338-.34h3.371a.34.34 0 0 1 .338.34v9.638c.932-.219 2.163-.319 3.076-.319 3.695 0 6.702 3.27 6.702 7.288V34.63a.34.34 0 0 1-.338.34H57.97" fill="#6A6866"/><path d="M51.481 1.46v10.083c.927-.297 2.402-.424 3.414-.424 3.582 0 6.364 3.262 6.364 6.948V34.63H57.97V18.067a3.265 3.265 0 0 0-3.287-3.263H51.48V34.63h-3.37V1.46h3.371m0-.679H48.11a.678.678 0 0 0-.676.68V34.63c0 .375.302.68.676.68h3.371a.678.678 0 0 0 .676-.68V15.484h2.527c1.44 0 2.611 1.159 2.611 2.583V34.63c0 .375.303.68.676.68h3.288a.678.678 0 0 0 .676-.68V18.067c0-1.948-.734-3.883-2.013-5.311-1.338-1.494-3.123-2.316-5.027-2.316-.803 0-1.849.076-2.738.24V1.46a.678.678 0 0 0-.676-.679m20.524 34.443c-3.835 0-6.955-3.136-6.955-6.99v-2.076c0-4.03 2.795-6.737 6.955-6.737 1.3 0 2.091.112 2.907.32v-2.225c0-1.307-.424-2.865-2.443-2.865-.122 0-.25.005-.38.017a.346.346 0 0 1-.074.01c-.818.026-1.792.1-2.733.171-.607.046-1.21.092-1.767.125h-.02a.337.337 0 0 1-.337-.327c-.026-.76-.053-1.234-.078-1.693-.016-.287-.033-.575-.049-.93a.34.34 0 0 1 .22-.334c1.104-.41 2.808-.866 4.28-.91.057-.002.11-.002.163-.002 4.495 0 7.181 3.749 7.181 7.373v10.082c0 3.855-3.082 6.99-6.87 6.99m0-12.369c-1.63 0-2.907 1.284-2.907 2.922v2.457c0 1.635 1.304 2.965 2.907 2.965s2.907-1.33 2.907-2.965v-5.379h-2.907" fill="#6A6866"/><path d="M71.694 11.118c4.129 0 6.843 3.392 6.843 7.033v10.082c0 3.643-2.908 6.651-6.532 6.651s-6.617-3.008-6.617-6.65v-2.076c0-3.644 2.487-6.397 6.617-6.397 1.56 0 2.36.17 3.245.423v-2.668c0-1.766-.76-3.205-2.781-3.205-.16 0-.33.009-.506.028h.042c-1.349.042-3.077.211-4.51.296-.041-1.228-.084-1.694-.126-2.626 1.138-.424 2.782-.848 4.172-.89a6.9 6.9 0 0 1 .153-.001m.311 20.42c1.812 0 3.245-1.483 3.245-3.305v-5.719h-3.245c-1.812 0-3.245 1.44-3.245 3.262v2.457c0 1.822 1.433 3.304 3.245 3.304m-.31-21.099c-.056 0-.111 0-.167.002-1.52.046-3.265.511-4.394.931a.68.68 0 0 0-.44.669c.016.356.032.644.048.933.026.457.052.93.078 1.686a.68.68 0 0 0 .676.656l.04-.002c.56-.033 1.176-.08 1.771-.125a64.967 64.967 0 0 1 2.716-.17.678.678 0 0 0 .119-.014 4.1 4.1 0 0 1 .327-.014c1.397 0 2.105.85 2.105 2.526v1.797c-.703-.149-1.466-.232-2.569-.232-2.168 0-4.013.703-5.335 2.032-1.262 1.268-1.958 3.06-1.958 5.045v2.075c0 1.944.763 3.78 2.147 5.172 1.385 1.392 3.212 2.159 5.146 2.159 3.974 0 7.208-3.289 7.208-7.33V18.15c0-3.791-2.812-7.713-7.519-7.713m.311 20.42c-1.417 0-2.57-1.178-2.57-2.625v-2.457c0-1.448 1.13-2.582 2.57-2.582h2.569v5.04c0 1.446-1.153 2.624-2.569 2.624m17.615 4.494c-3.811 0-6.912-3.136-6.912-6.99V17.77c0-3.855 3.1-6.99 6.912-6.99 3.835 0 6.955 3.135 6.955 6.99v.423a.339.339 0 0 1-.327.34c-.605.02-1.155.03-1.669.04-.586.012-1.139.022-1.657.045h-.015a.337.337 0 0 1-.338-.34v-.508c0-1.611-1.323-2.922-2.949-2.922-1.58 0-2.865 1.31-2.865 2.922v10.59c0 1.639 1.259 2.923 2.865 2.923 1.617 0 2.912-1.232 2.95-2.804a.341.341 0 0 1 .337-.331h.027c1.653.128 3.182.21 3.303.211a.338.338 0 0 1 .337.357c-.175 3.658-3.295 6.635-6.954 6.635" fill="#6A6866"/><path d="M89.62 11.12c3.625 0 6.617 2.964 6.617 6.65v.423c-1.307.043-2.36.043-3.33.085v-.508c0-1.78-1.475-3.262-3.287-3.262-1.77 0-3.203 1.483-3.203 3.262v10.59c0 1.864 1.433 3.262 3.203 3.262 1.77 0 3.245-1.355 3.287-3.135 1.644.127 3.203.212 3.33.212-.169 3.516-3.119 6.312-6.617 6.312-3.624 0-6.574-2.965-6.574-6.65V17.77c0-3.686 2.95-6.65 6.574-6.65m0-.68c-3.998 0-7.25 3.288-7.25 7.33v10.59c0 4.042 3.252 7.33 7.25 7.33a7.26 7.26 0 0 0 5.022-2.023 7.273 7.273 0 0 0 2.27-4.935.681.681 0 0 0-.675-.712c-.142-.003-1.668-.086-3.277-.21l-.053-.002a.674.674 0 0 0-.675.663c-.033 1.386-1.18 2.472-2.612 2.472-1.417 0-2.527-1.135-2.527-2.583V17.77c0-1.424 1.134-2.582 2.527-2.582 1.44 0 2.611 1.158 2.611 2.582v.508a.68.68 0 0 0 .676.68h.03a65.041 65.041 0 0 1 1.649-.045c.524-.01 1.065-.02 1.672-.04a.678.678 0 0 0 .655-.68v-.423c0-4.042-3.272-7.33-7.293-7.33m21.03 24.53a.337.337 0 0 1-.293-.171l-6.406-11.226c-.08-.14-.15-.266-.212-.384v11.44c0 .188-.151.34-.338.34h-3.371a.339.339 0 0 1-.339-.34V1.546a.34.34 0 0 1 .339-.34h3.371a.34.34 0 0 1 .338.34v19.763c.091-.18.204-.383.339-.616l5.65-9.41a.338.338 0 0 1 .29-.164h3.835a.34.34 0 0 1 .291.513l-6.265 10.676 6.774 12.157a.341.341 0 0 1-.295.506h-3.708" fill="#6A6866"/><path d="M100.03 1.545h3.371V34.63h-3.371V1.545zm13.823 9.913l-6.364 10.845 6.87 12.327h-3.71l-6.405-11.226c-.633-1.101-.633-1.228.126-2.542l5.647-9.404h3.836zM103.4.866h-3.371a.678.678 0 0 0-.677.68V34.63c0 .375.303.68.677.68h3.371a.678.678 0 0 0 .676-.68V24.477l5.986 10.49c.12.212.344.342.587.342h3.708c.24 0 .462-.128.584-.336a.683.683 0 0 0 .006-.675l-6.68-11.987 6.167-10.508a.683.683 0 0 0 .005-.682.675.675 0 0 0-.587-.343h-3.836a.675.675 0 0 0-.578.329l-5.362 8.928V1.545a.678.678 0 0 0-.676-.68zm18.211 34.45c-3.882 0-6.285-3.633-6.285-6.998V17.812c0-3.878 3.12-7.033 6.955-7.033 3.811 0 6.912 3.155 6.912 7.033v5.21a2.008 2.008 0 0 1-2.023 2.035h-7.796v3.26c0 1.635 1.304 2.966 2.907 2.966h4.256c.182 0 .331.144.338.326.04 1.031.08 1.826.167 2.602a.34.34 0 0 1-.284.373l-4.046.636a6.46 6.46 0 0 1-1.1.096m3.576-14.285v-3.219c0-1.634-1.305-2.964-2.907-2.964-1.603 0-2.907 1.33-2.907 2.964v3.219h5.814" fill="#6A6866"/><path d="M122.28 11.12c3.625 0 6.575 3.007 6.575 6.692v5.21c0 .975-.759 1.695-1.685 1.695h-8.134v3.6c0 1.823 1.433 3.305 3.245 3.305h4.256c.042 1.101.085 1.864.169 2.626l-4.046.636a6.18 6.18 0 0 1-1.049.093c-3.558 0-5.947-3.294-5.947-6.66V17.813c0-3.685 2.95-6.693 6.617-6.693m-3.245 10.252h6.49v-3.559c0-1.821-1.475-3.304-3.245-3.304-1.812 0-3.245 1.483-3.245 3.304v3.559m3.245-10.931c-4.021 0-7.293 3.307-7.293 7.372v10.506c0 3.529 2.532 7.338 6.623 7.338.38 0 .77-.034 1.159-.102l4.04-.634a.679.679 0 0 0 .568-.747c-.085-.765-.126-1.553-.165-2.577a.678.678 0 0 0-.676-.653h-4.256c-1.417 0-2.57-1.178-2.57-2.625v-2.921h7.459c1.324 0 2.361-1.043 2.361-2.374v-5.21c0-4.066-3.252-7.373-7.25-7.373m-2.57 10.251v-2.879c0-1.447 1.153-2.624 2.57-2.624 1.416 0 2.569 1.177 2.569 2.624v2.879h-5.138m13.146 14.278a.339.339 0 0 1-.338-.34V18.109c0-3.625 2.718-7.374 7.266-7.374.053 0 .106 0 .159.002 1.422.042 2.332.355 3.426.88a.34.34 0 0 1 .192.321c-.038.918-.08 1.778-.126 2.631a.339.339 0 0 1-.338.321l-3.674-.085c-1.606 0-2.857 1.776-2.857 3.304v16.52a.34.34 0 0 1-.338.34h-3.372" fill="#6A6866"/><path d="M139.786 11.075c.05 0 .1 0 .152.002 1.433.042 2.318.381 3.287.847a191.43 191.43 0 0 1-.126 2.626l-3.667-.084c-1.77 0-3.202 1.906-3.202 3.643v16.52h-3.372V18.11c0-3.641 2.797-7.034 6.928-7.034m0-.68c-2.128 0-4.083.84-5.506 2.367a7.916 7.916 0 0 0-2.098 5.347v16.52c0 .376.303.68.676.68h3.372a.678.678 0 0 0 .676-.68V18.11c0-1.34 1.123-2.958 2.52-2.964l3.657.085h.016a.678.678 0 0 0 .675-.642c.047-.855.089-1.717.127-2.636a.68.68 0 0 0-.384-.641c-1.135-.545-2.08-.87-3.559-.914a7.7 7.7 0 0 0-.172-.001" fill="#6A6866"/><g transform="translate(.45 1.133)"><mask id="b" fill="#fff"><use xlink:href="#a"/></mask><path d="M.108.116v32.928h5.226V.455L.108.116" mask="url(#b)"/></g><g transform="translate(8.563 3.398)"><mask id="d" fill="#fff"><use xlink:href="#c"/></mask><path d="M.55 7.425v23.354h5.226V7.721L.551 7.425M3.163.18C1.77.18.59 1.158.263 2.463a1.023 1.023 0 0 0-.083.041 2.992 2.992 0 0 0 .427 1.787 2.997 2.997 0 0 0 2.556 1.452c1.568 0 2.868-1.233 2.984-2.781C6.03 1.414 4.73.181 3.163.181" mask="url(#d)"/></g><g transform="translate(17.577 .453)"><mask id="f" fill="#fff"><use xlink:href="#e"/></mask><path d="M7.256.457C3.378.457.09 4.057.09 8.039v31.234l.226-.013 5-.283v-19.02h3.92v-5.254h-3.92V7.586c0-1.1.885-1.99 1.939-1.99h2.402l.192-4.6C9.568.82 8.533.456 7.256.456m.007-.452" mask="url(#f)"/></g><g transform="translate(29.521 9.967)"><mask id="h" fill="#fff"><use xlink:href="#g"/></mask><path d="M5.257 9.765V7.308c0-1.102.885-1.991 1.981-1.991.831 0 1.557.553 1.827 1.327.072.208.112.431.112.664v2.457h-3.92M7.238.517C3.234.517.032 3.779.032 7.76v9.544c0 1.304.334 2.604.944 3.735 1.094 2.03 3.076 3.52 5.602 3.52.364 0 .739-.031 1.124-.096l4.72-.72-.169-4.448H7.238c-.686 0-1.29-.35-1.645-.88a1.99 1.99 0 0 1-.336-1.11v-2.289h6.533a2.606 2.606 0 0 0 2.612-2.626V7.76c0-3.982-3.202-7.244-7.164-7.244m0-.453h-.012.024-.012" mask="url(#h)"/></g><g transform="translate(47.775 1.36)"><mask id="j" fill="#fff"><use xlink:href="#i"/></mask><path d="M6.872 9.307H6.87h.002m.012 0h-.008.008m.01 0h-.008.009M3.48.101H.11v32.717h3.37V12.992h3.203c1.382 0 2.567.837 3.053 2.043.151.375.234.786.234 1.22v16.563h3.288v-16.11c0-3.686-2.782-6.948-6.364-6.948-1.012 0-2.486.127-3.414.423V.101" mask="url(#j)"/></g><g transform="translate(65.127 11.1)"><mask id="l" fill="#fff"><use xlink:href="#k"/></mask><path d="M6.653 8.208h.027-.027M3.879 18.402a3.348 3.348 0 0 1-.471-1.721v-2.457c0-1.822 1.433-3.262 3.245-3.262h3.245v5.719c0 1.821-1.433 3.304-3.245 3.304a3.218 3.218 0 0 1-2.774-1.583M6.342.018c-.05 0-.102 0-.153.002C4.807.062 3.176.48 2.04.9c.035.67.07 1.164.105 2.181l.208-.012c1.39-.088 3.017-.244 4.3-.284h-.041a4.79 4.79 0 0 1 .506-.028c1.349 0 2.136.641 2.51 1.592.187.474.27 1.026.27 1.613v2.669a1.576 1.576 0 0 0-.098-.028l.099.102v.379c-.885-.254-1.686-.424-3.245-.424-3.37 0-5.646 1.834-6.369 4.489a1.177 1.177 0 0 0-.103-.022 7.427 7.427 0 0 0-.145 1.477v2.076c0 1.141.294 2.22.81 3.164 1.128 2.068 3.318 3.486 5.807 3.486 3.624 0 6.532-3.007 6.532-6.65V7.05c0-.104-.003-.21-.007-.314l.007.116v-.254c0-.202-.008-.403-.025-.602-.002.197 0 .394.008.592-.218-3.46-2.873-6.57-6.826-6.57" mask="url(#l)"/></g><g transform="translate(82.704 10.646)"><mask id="n" fill="#fff"><use xlink:href="#m"/></mask><path d="M6.69.473C3.067.473.117 3.438.117 7.123v10.138a6.69 6.69 0 0 0 .815 3.213c1.121 2.053 3.283 3.438 5.76 3.438 3.35 0 6.197-2.565 6.58-5.87.017-.146.03-.294.036-.442-.126 0-1.686-.085-3.33-.212-.041 1.78-1.516 3.135-3.286 3.135-1.16 0-2.174-.6-2.736-1.537a3.333 3.333 0 0 1-.467-1.725V6.67c0-1.78 1.433-3.262 3.203-3.262 1.383 0 2.57.863 3.054 2.063a3.2 3.2 0 0 1 .233 1.198v.509l.225-.01c.908-.033 1.898-.036 3.104-.075V6.67c0-.08-.001-.161-.004-.242l-.032.003C12.924 3.073 10.085.473 6.691.473m0-.453H6.68h.01" mask="url(#n)"/></g><g transform="translate(99.606 1.36)"><mask id="p" fill="#fff"><use xlink:href="#o"/></mask><path d="M14.022 9.646h-.424l-.373.453h-3.039l-.075.125a3.9 3.9 0 0 0-.148-.206L4.539 19.05c-.701 1.214-.754 1.415-.258 2.308.04.073.084.15.132.234l6.406 11.226h3.708L7.657 20.49l6.365-10.844zM.199 32.818H3.57V.186H.199v32.632z" mask="url(#p)"/></g><g transform="translate(115.38 11.1)"><mask id="r" fill="#fff"><use xlink:href="#q"/></mask><path d="M3.43 9.818V6.26c0-1.822 1.433-3.304 3.245-3.304 1.342 0 2.514.851 3.003 2.057.156.385.242.806.242 1.247v3.558H3.43M6.675.02C3.29.02.518 2.583.112 5.877a.713.713 0 0 0-.042-.01c-.008.13-.011.26-.011.393v10.505c0 1.218.312 2.427.88 3.474 1.002 1.845 2.796 3.185 5.067 3.185.339 0 .69-.03 1.048-.093l4.046-.635a31.447 31.447 0 0 1-.15-2.173l-.018-.453H6.675a3.219 3.219 0 0 1-2.774-1.583 3.35 3.35 0 0 1-.47-1.722v-3.6h8.133c.927 0 1.686-.72 1.686-1.695V6.26c0-.226-.011-.45-.033-.67a1.1 1.1 0 0 0-.056.035C12.65 2.454 9.935.02 6.675.02" mask="url(#r)"/></g><g transform="translate(132.507 10.42)"><mask id="t" fill="#fff"><use xlink:href="#s"/></mask><path d="M7.053.655C2.923.655.126 4.048.126 7.69v16.068h3.371V7.236c0-1.737 1.433-3.643 3.203-3.643l3.667.084c.037-.676.074-1.418.112-2.286l.001-.043c-.01.045-.022.09-.033.134C9.496 1.028 8.616.7 7.206.657a8.64 8.64 0 0 0-.153-.002m0-.453h-.097a13.819 13.819 0 0 1 .097 0" mask="url(#t)"/></g><path fill="#6A6866" d="M5.785 1.573v.033l.062-.029-.062-.004"/><path d="M.56.796a.45.45 0 0 0-.433.33c.14.158.233.365.25.626l.034.02c.048.027.099.052.148.078V.796l5.226.339v.438l.062.004.075-.029a7.07 7.07 0 0 1 .054-.366.44.44 0 0 0-.162-.046L.588.796H.559" fill="#6A6866"/><g transform="translate(.45 .68)"><mask id="v" fill="#fff"><use xlink:href="#u"/></mask><path d="M.108.116V1.17v-.6l5.226.338V.455L.108.116" mask="url(#v)"/></g><path fill="#6A6866" d="M14.509 5.03a2.987 2.987 0 0 1 .201 1.33c.006.075.009.15.009.226l-.002.028a.687.687 0 0 0 .217-.273 2.996 2.996 0 0 0-.425-1.31"/><path d="M11.727 3.126c-1.852 0-3.363 1.477-3.436 3.32.022-.05.046-.1.072-.15a.906.906 0 0 1 .38-.394c.119-1.545 1.417-2.776 2.984-2.776 1.257 0 2.34.792 2.782 1.904.236.389.386.835.425 1.311a.951.951 0 0 0 .026-.064c.007-.052.01-.109.011-.173.002-.114.02-.217.046-.314-.013-.025-.027-.046-.039-.073-.155-.367-.313-.71-.393-1.057a3.438 3.438 0 0 0-2.858-1.534" fill="#6A6866"/><g transform="translate(8.563 2.945)"><mask id="x" fill="#fff"><use xlink:href="#w"/></mask><path d="M3.163.18C1.597.18.3 1.413.18 2.958a.81.81 0 0 1 .084-.04C.59 1.61 1.769.633 3.164.633c1.567 0 2.867 1.233 2.983 2.781a3.016 3.016 0 0 0-.202-1.33A3.007 3.007 0 0 0 3.163.181" mask="url(#x)"/></g><path fill="#6A6866" d="M14.34 11.106v.104l.028-.102-.028-.002"/><path d="M9.114 10.37a.45.45 0 0 0-.451.452v14.365c.01.044.022.086.027.132.085.706.151 1.402.258 2.068a.94.94 0 0 1 .166 0V10.369l5.226.297v.44l.028.002.035-.121a1.972 1.972 0 0 1-.022-.317l-.016-.003-5.226-.297h-.025" fill="#6A6866"/><g transform="translate(9.014 10.193)"><mask id="z" fill="#fff"><use xlink:href="#y"/></mask><path d="M.1.176v17.017V.63l5.226.297V.473L.1.176" mask="url(#z)"/></g><path fill="#6A6866" d="M17.218 8.48v.012-.012M24.833.457c-4.053 0-7.608 3.747-7.615 8.023v2.112a.855.855 0 0 1 .45-.115V8.04c0-3.981 3.288-7.582 7.165-7.582h.008-.008m2.599.882l-.004.109a.527.527 0 0 1 .018.012l-.011.26c.032-.046.067-.09.1-.134a2.305 2.305 0 0 1-.008-.205 2.274 2.274 0 0 0-.095-.042"/><path d="M24.841.457c1.303.001 2.353.382 2.605.55l-.014.333c.034.014.066.028.095.042 0-.126.01-.253.031-.377-.475-.245-1.536-.547-2.717-.548" fill="#6A6866"/><g transform="translate(17.577 .453)"><mask id="B" fill="#fff"><use xlink:href="#A"/></mask><path d="M7.256.004C3.378.004.09 3.604.09 7.586v2.438V8.04C.091 4.058 3.378.457 7.256.457c1.277 0 2.312.364 2.594.539l.018-.441C9.616.385 8.566.005 7.264.004h-.008" mask="url(#B)"/></g><path d="M43.272 14.26c.419.919.652 1.94.652 3.015v1.618c.074-.013.15-.022.225-.028v-1.137a7.265 7.265 0 0 0-.877-3.469" fill="#6A6866"/><path d="M36.77 10.03c2.889.005 5.372 1.743 6.502 4.23a7.265 7.265 0 0 1 .877 3.468v1.137a2.615 2.615 0 0 1 .225-.007v-1.13c0-4.24-3.41-7.691-7.603-7.697m-7.669 7.684v.013-.013m7.645-7.685c-4.212.007-7.638 3.45-7.645 7.685v7.177c.138-.087.292-.143.45-.164v-7.453c0-3.979 3.197-7.238 7.195-7.244" fill="#6A6866"/><g transform="translate(29.521 9.967)"><mask id="D" fill="#fff"><use xlink:href="#C"/></mask><path d="M7.238.064h-.012C3.228.07.032 3.329.032 7.308v7.453-7C.032 3.779 3.234.517 7.238.517c3.962 0 7.164 3.262 7.164 7.244v-.453a7.267 7.267 0 0 0-.65-3.016C12.62 1.806 10.137.068 7.25.064h-.012" mask="url(#D)"/></g><path fill="#6A6866" d="M47.434 1.458v.003-.003m4.016.002h-.194v.237c.051-.007.103-.012.156-.012h.001l.038-.224"/><path d="M51.256 1.008h-3.372a.452.452 0 0 0-.45.45v14.548a1.269 1.269 0 0 1 .45-.05V1.008h3.372v.453h.195l.024-.147c.012-.076.032-.146.056-.21a.444.444 0 0 0-.275-.096" fill="#6A6866"/><g transform="translate(47.775 .906)"><mask id="F" fill="#fff"><use xlink:href="#E"/></mask><path d="M3.481.101H.11V15.05.555h3.37V.1" mask="url(#F)"/></g><path d="M60.372 14.566c.425.933.661 1.972.661 3.047v2.654c.025-.086.054-.17.078-.257.032-.117.083-.225.148-.32v-1.623a7.365 7.365 0 0 0-.887-3.5" fill="#6A6866"/><path d="M54.65 10.666h-.004.005m.01 0h-.003.003m.009 0c2.537 0 4.672 1.636 5.702 3.9a7.365 7.365 0 0 1 .887 3.5v1.623a1.15 1.15 0 0 1 .225-.247v-1.375c0-1.893-.712-3.773-1.954-5.16-1.295-1.445-3.021-2.24-4.86-2.24m-3.414.337v.085c.072-.022.147-.045.225-.065v-.02a1.246 1.246 0 0 1-.225 0m3.389-.338c-.86.002-1.99.091-2.898.283a1.224 1.224 0 0 1-.266.055v.02c.92-.248 2.232-.356 3.164-.358" fill="#6A6866"/><g transform="translate(51.155 10.646)"><mask id="H" fill="#fff"><use xlink:href="#G"/></mask><path d="M3.515.02H3.49C2.558.022 1.246.13.326.377a5.079 5.079 0 0 0-.225.066v.453C1.028.6 2.503.473 3.515.473c3.582 0 6.363 3.261 6.363 6.947v-.453a7.366 7.366 0 0 0-.66-3.047C8.187 1.656 6.051.02 3.514.02" mask="url(#H)"/></g><path d="M71.807 19.308c1.483.002 2.277.158 3.119.395a8.76 8.76 0 0 1-.352-.387v.28c-.77-.187-1.545-.287-2.767-.288m-.028 0c-2.107 0-3.896.68-5.175 1.965-.795.798-1.355 1.814-1.65 2.956a1.08 1.08 0 0 1 .354-.001c.586-2.885 2.921-4.92 6.471-4.92" fill="#6A6866"/><g transform="translate(65.127 19.254)"><mask id="J" fill="#fff"><use xlink:href="#I"/></mask><path d="M6.653.054C3.103.054.767 2.089.18 4.974a.94.94 0 0 1 .103.021C1.007 2.341 3.282.507 6.653.507c1.56 0 2.36.17 3.245.423V.551a14.157 14.157 0 0 1-.1-.102C8.958.212 8.164.056 6.68.054h-.027" mask="url(#J)"/></g><path d="M77.656 14.663a7.35 7.35 0 0 1 .631 2.433c.003-.24.015-.478.035-.712a7.286 7.286 0 0 0-.666-1.721" fill="#6A6866"/><path d="M71.47 10.665l-.163.001c-1.49.045-3.208.504-4.32.918a.453.453 0 0 0-.293.445l.01.22c.144-.06.292-.11.444-.15l-.004-.09.022-.008a63.867 63.867 0 0 1-.022-.445c1.138-.424 2.781-.848 4.172-.89a6.9 6.9 0 0 1 .153-.001c2.928 0 5.145 1.707 6.187 3.998.292.54.516 1.119.666 1.721.016-.202.039-.402.067-.596-.892-2.784-3.341-5.123-6.92-5.123" fill="#6A6866"/><g transform="translate(66.93 10.646)"><mask id="L" fill="#fff"><use xlink:href="#K"/></mask><path d="M4.54.018c-.051 0-.102 0-.154.002C2.996.062 1.352.485.214.91l.022.444c1.137-.42 2.768-.84 4.15-.881L4.54.47c3.953 0 6.608 3.11 6.827 6.57a9.696 9.696 0 0 1-.008-.591 7.35 7.35 0 0 0-.632-2.433C9.685 1.725 7.468.018 4.54.018" mask="url(#L)"/></g><path fill="#6A6866" d="M78.312 17.952v.934c.038.001.075.01.113.016a9.065 9.065 0 0 1-.113-.95"/><g transform="translate(78.197 17.669)"><mask id="N" fill="#fff"><use xlink:href="#M"/></mask><path mask="url(#N)" d="M.107.168c.005.105.008.21.008.314V.284A6.593 6.593 0 0 1 .107.168"/></g><path d="M95.427 14.584c.344.764.548 1.604.58 2.49l.193-.011a6.61 6.61 0 0 0-.773-2.479" fill="#6A6866"/><path d="M89.395 10.666c2.665 0 4.989 1.603 6.032 3.918.409.75.679 1.587.773 2.479a5.41 5.41 0 0 1 .226-.007c-.357-3.583-3.374-6.39-7.031-6.39m-7.025 7.092v.012-.012m7.014-7.092c-3.865.006-7.008 3.184-7.014 7.092v3.552a1.402 1.402 0 0 1 .45-.022v-3.971c0-3.682 2.945-6.645 6.564-6.65" fill="#6A6866"/><g transform="translate(82.704 10.646)"><mask id="P" fill="#fff"><use xlink:href="#O"/></mask><path d="M6.69.02h-.01C3.06.025.116 2.988.116 6.67v3.971-3.518c0-3.685 2.95-6.65 6.575-6.65 3.394 0 6.233 2.6 6.58 5.958l.032-.003a6.631 6.631 0 0 0-.58-2.49C11.68 1.623 9.355.02 6.69.02" mask="url(#P)"/></g><path fill="#6A6866" d="M113.204 11.005h-3.412a.449.449 0 0 0-.317.132l-.025.095c.04.047.08.096.118.145l.224-.372h3.412"/><g transform="translate(109.521 10.873)"><mask id="R" fill="#fff"><use xlink:href="#Q"/></mask><path d="M3.683.132H.27L.047.504A3.9 3.9 0 0 1 .196.71L.27.585h3.04l.373-.453" mask="url(#R)"/></g><path fill="#6A6866" d="M99.353 1.542v.003-.003m4.048.003h-.225v.23a1.15 1.15 0 0 1 .225-.082v-.148"/><path d="M103.176 1.092h-3.372a.452.452 0 0 0-.45.45V17.84c.124-.63.273-1.255.45-1.875V1.092h3.372v.453h.225v.148l.084-.018.001-.004c.01-.032.017-.065.025-.097v-.329a.447.447 0 0 0-.335-.153" fill="#6A6866"/><g transform="translate(99.606 .906)"><mask id="T" fill="#fff"><use xlink:href="#S"/></mask><path d="M3.57.186H.199v14.872V.64H3.57V.186" mask="url(#T)"/></g><path d="M128.034 14.577c.295.655.49 1.366.563 2.112.049-.028.1-.052.153-.072a6.724 6.724 0 0 0-.716-2.04" fill="#6A6866"/><path d="M122.055 10.666c-3.616 0-6.605 2.761-7.017 6.308a.969.969 0 0 1 .23-.028.84.84 0 0 1 .182.02c.201-3.504 3.07-6.3 6.605-6.3 2.65 0 4.939 1.607 5.979 3.911a6.77 6.77 0 0 1 .716 2.04c.07-.027.144-.047.22-.059-.585-3.344-3.462-5.892-6.915-5.892" fill="#6A6866"/><g transform="translate(115.38 10.646)"><mask id="V" fill="#fff"><use xlink:href="#U"/></mask><path d="M6.675.02C3.14.02.271 2.816.07 6.32a.713.713 0 0 1 .042.01C.518 3.036 3.29.473 6.675.473c3.26 0 5.974 2.434 6.486 5.605a1.1 1.1 0 0 1 .056-.035 6.728 6.728 0 0 0-.564-2.112C11.613 1.627 9.324.02 6.675.02" mask="url(#V)"/></g><path fill="#6A6866" d="M139.666 10.623h.047c1.433.043 2.318.382 3.287.848l-.013.297.079-.313c-1.05-.494-1.958-.79-3.34-.831l-.06-.001m-.203 0c-2.027.025-3.886.837-5.244 2.294a7.686 7.686 0 0 0-2.037 5.18v.013a1.34 1.34 0 0 1 .45 0v-.454c0-3.612 2.753-6.98 6.831-7.033"/><g transform="translate(132.507 10.42)"><mask id="X" fill="#fff"><use xlink:href="#W"/></mask><path d="M7.053.202h-.097C2.878.257.126 3.625.126 7.237v.454-.001C.126 4.05 2.923.656 7.053.656c.05 0 .101 0 .153.002 1.41.042 2.29.37 3.241.825l.033-.134.013-.297C9.523.585 8.639.246 7.206.204L7.159.203h-.106" mask="url(#X)"/></g><path d="M.559.796l5.226.339v33.042H.559V.796m0-.453a.45.45 0 0 0-.45.453v33.38c0 .25.201.454.45.454h5.226c.249 0 .45-.203.45-.453V1.135a.452.452 0 0 0-.421-.452L.588.343h-.03m11.169 2.783c1.643 0 2.992 1.355 2.992 3.007 0 1.652-1.349 3.008-2.992 3.008-1.644 0-2.993-1.356-2.993-3.008s1.35-3.007 2.993-3.007zm-2.613 7.243l5.226.297v23.51H9.114V10.37zm2.613-7.697c-1.899 0-3.443 1.553-3.443 3.461 0 1.909 1.544 3.461 3.443 3.461 1.898 0 3.443-1.552 3.443-3.46 0-1.909-1.545-3.462-3.443-3.462zM9.114 9.916a.45.45 0 0 0-.451.453v23.808c0 .25.202.453.45.453h5.227c.248 0 .45-.203.45-.453v-23.51a.452.452 0 0 0-.425-.453L9.14 9.917h-.025zM24.833.457c1.306 0 2.36.381 2.613.55l-.21 5.042h-2.403c-1.054 0-1.939.89-1.939 1.99v7.117h3.92v5.253h-3.92v19.02l-5.225.297V8.04c0-3.981 3.287-7.582 7.164-7.582m0-.453c-4.057 0-7.615 3.755-7.615 8.035v31.687a.453.453 0 0 0 .45.453h.026l5.226-.297a.452.452 0 0 0 .425-.452V20.862h3.469c.249 0 .45-.203.45-.453v-5.253a.452.452 0 0 0-.45-.453h-3.469V8.04c0-.847.668-1.537 1.488-1.537h2.402c.242 0 .44-.192.45-.434l.211-5.041a.454.454 0 0 0-.2-.396c-.377-.253-1.548-.627-2.863-.627M36.76 10.03c3.96 0 7.164 3.262 7.164 7.245v5.083a2.606 2.606 0 0 1-2.613 2.626h-6.532v2.288c0 1.101.885 1.99 1.98 1.99h5.015l.169 4.449-4.72.72a6.79 6.79 0 0 1-1.124.095c-3.933 0-6.546-3.61-6.546-7.254v-9.997c0-3.983 3.203-7.244 7.206-7.244zm-1.981 9.701h3.919v-2.456c0-1.102-.885-1.992-1.939-1.992-1.095 0-1.98.89-1.98 1.992v2.456zm1.98-10.154c-4.222 0-7.657 3.453-7.657 7.698v9.997c0 3.707 2.675 7.707 6.997 7.707.393 0 .796-.034 1.198-.101l4.714-.72a.452.452 0 0 0 .382-.464l-.168-4.449a.452.452 0 0 0-.45-.435h-5.016c-.844 0-1.53-.69-1.53-1.538v-1.835h6.082a3.075 3.075 0 0 0 3.063-3.08v-5.082c0-4.245-3.416-7.698-7.615-7.698zm-1.53 9.701v-2.003c0-.848.686-1.538 1.53-1.538.82 0 1.488.69 1.488 1.538v2.003H35.23zm16.027-18.27v10.081c.927-.296 2.402-.423 3.414-.423 3.582 0 6.363 3.262 6.363 6.947v16.564h-3.287V17.613a3.264 3.264 0 0 0-3.287-3.262h-3.203v19.826h-3.372V1.007h3.372m0-.452h-3.372a.452.452 0 0 0-.45.453v33.169c0 .25.202.453.45.453h3.372c.249 0 .45-.203.45-.453V14.804h2.753c1.564 0 2.836 1.26 2.836 2.81v16.563c0 .25.202.453.451.453h3.287a.45.45 0 0 0 .45-.453V17.613c0-1.892-.711-3.772-1.953-5.159-1.295-1.445-3.021-2.24-4.86-2.24-.875 0-2.041.09-2.963.29V1.008a.452.452 0 0 0-.451-.453m20.214 10.11c4.128 0 6.842 3.392 6.842 7.033V27.78c0 3.643-2.908 6.65-6.532 6.65-3.625 0-6.617-3.007-6.617-6.65v-2.075c0-3.644 2.487-6.397 6.617-6.397 1.559 0 2.36.17 3.245.423v-2.668c0-1.766-.76-3.205-2.782-3.205-.16 0-.329.009-.506.028h.043c-1.35.042-3.077.211-4.51.296-.042-1.228-.084-1.694-.126-2.626 1.138-.424 2.781-.848 4.172-.89l.153-.001zm.31 20.42c1.812 0 3.245-1.483 3.245-3.305v-5.719H71.78c-1.813 0-3.245 1.44-3.245 3.262v2.457c0 1.822 1.432 3.304 3.245 3.304zm0-17.2zm-.31-3.674l-.163.002c-1.49.045-3.208.504-4.32.918a.453.453 0 0 0-.293.445c.016.355.032.643.048.931.025.459.052.933.078 1.69a.454.454 0 0 0 .45.438h.027c.559-.034 1.174-.08 1.768-.126.94-.071 1.912-.145 2.727-.17a.527.527 0 0 0 .09-.012c.125-.01.246-.016.361-.016 1.927 0 2.331 1.496 2.331 2.752v2.08c-.776-.188-1.556-.288-2.794-.288-2.108 0-3.897.68-5.176 1.965-1.22 1.226-1.892 2.96-1.892 4.885v2.075a7.07 7.07 0 0 0 2.082 5.012 6.994 6.994 0 0 0 4.986 2.092c3.85 0 6.983-3.187 6.983-7.104V17.698c0-3.68-2.729-7.487-7.294-7.487zm.31 20.42c-1.541 0-2.795-1.279-2.795-2.85v-2.458c0-1.575 1.228-2.809 2.795-2.809h2.794v5.266c0 1.572-1.254 2.851-2.794 2.851zm17.615-19.965c3.624 0 6.616 2.965 6.616 6.65v.424c-1.306.043-2.36.043-3.329.085v-.508c0-1.78-1.475-3.262-3.287-3.262-1.77 0-3.203 1.483-3.203 3.262v10.59c0 1.864 1.433 3.262 3.203 3.262 1.77 0 3.245-1.355 3.287-3.135 1.644.127 3.203.212 3.33.212-.17 3.516-3.12 6.312-6.617 6.312-3.624 0-6.574-2.965-6.574-6.65V17.316c0-3.686 2.95-6.65 6.574-6.65m0-.454c-3.874 0-7.025 3.187-7.025 7.104v10.59c0 3.917 3.151 7.104 7.025 7.104 1.81 0 3.538-.696 4.867-1.962a7.047 7.047 0 0 0 2.2-4.781.45.45 0 0 0-.45-.475c-.129-.001-1.67-.085-3.295-.21l-.035-.002a.449.449 0 0 0-.45.442c-.036 1.51-1.282 2.693-2.837 2.693-1.544 0-2.752-1.234-2.752-2.809v-10.59c0-1.549 1.234-2.809 2.752-2.809 1.564 0 2.836 1.26 2.836 2.809v.508a.454.454 0 0 0 .451.453h.02c.516-.023 1.069-.033 1.654-.045.523-.01 1.064-.02 1.67-.04a.452.452 0 0 0 .436-.453v-.423c0-3.917-3.17-7.104-7.067-7.104m10.409-9.12h3.372v33.085h-3.372V1.092zm13.823 9.913l-6.364 10.845 6.87 12.327h-3.709l-6.406-11.226c-.632-1.101-.632-1.228.127-2.542l5.647-9.404h3.835zM103.176.639h-3.372a.452.452 0 0 0-.45.453v33.085c0 .25.201.453.45.453h3.372c.248 0 .45-.203.45-.453V23.174l.002.003 6.405 11.225c.08.14.23.228.391.228h3.709a.455.455 0 0 0 .393-.675l-6.743-12.1 6.232-10.62a.455.455 0 0 0-.388-.683h-3.835a.45.45 0 0 0-.386.219l-5.647 9.404-.133.233V1.092a.452.452 0 0 0-.45-.453zm18.879 10.027c3.625 0 6.575 3.008 6.575 6.693v5.21c0 .975-.759 1.695-1.686 1.695h-8.134v3.6c0 1.822 1.433 3.305 3.245 3.305h4.257c.042 1.101.084 1.864.168 2.626l-4.045.636c-.36.062-.71.093-1.05.093-3.558 0-5.946-3.294-5.946-6.66V17.36c0-3.685 2.95-6.693 6.616-6.693zm-3.245 10.251h6.49V17.36c0-1.821-1.475-3.304-3.245-3.304-1.812 0-3.245 1.483-3.245 3.304v3.558zm3.245-10.704c-3.897 0-7.067 3.206-7.067 7.146v10.506c0 3.42 2.446 7.112 6.398 7.112a6.57 6.57 0 0 0 1.126-.1l4.038-.634a.452.452 0 0 0 .378-.498c-.085-.772-.126-1.565-.166-2.593a.452.452 0 0 0-.45-.436h-4.257c-1.54 0-2.794-1.279-2.794-2.851v-3.148h7.683a2.12 2.12 0 0 0 2.137-2.147v-5.21c0-3.941-3.152-7.147-7.026-7.147zm-2.794 10.251V17.36c0-1.572 1.253-2.85 2.794-2.85 1.541 0 2.795 1.278 2.795 2.85v3.105h-5.589zm20.299-9.842c.05 0 .102 0 .153.002 1.433.042 2.318.381 3.287.847a191.446 191.446 0 0 1-.126 2.626l-3.667-.085c-1.77 0-3.203 1.907-3.203 3.644v16.52h-3.371v-16.52c0-3.641 2.797-7.034 6.927-7.034m0-.453c-2.064 0-3.961.815-5.341 2.295a7.686 7.686 0 0 0-2.037 5.192v16.52c0 .25.202.454.45.454h3.372c.25 0 .451-.203.451-.453V17.656c0-1.445 1.227-3.19 2.752-3.19l3.656.084h.01a.452.452 0 0 0 .45-.428c.048-.853.09-1.714.127-2.632a.453.453 0 0 0-.255-.428c-1.108-.532-2.03-.849-3.469-.891a8.408 8.408 0 0 0-.166-.002" fill="#6A6866"/></g></svg>