<?xml version="1.0" standalone="no"?>
<!DOCTYPE svg PUBLIC "-//W3C//DTD SVG 20010904//EN"
 "http://www.w3.org/TR/2001/REC-SVG-20010904/DTD/svg10.dtd">
<svg version="1.0" xmlns="../external.html?link=http://www.w3.org/2000/svg"
 width="260.000000pt" height="260.000000pt" viewBox="0 0 260.000000 260.000000"
 preserveAspectRatio="xMidYMid meet">
<metadata>
Created by potrace 1.11, written by Peter Selinger 2001-2013
</metadata>
<g transform="translate(0.000000,260.000000) scale(0.100000,-0.100000)"
fill="#000000" stroke="none">
<path d="M1102 2445 c-86 -85 -160 -155 -164 -155 -4 0 -8 -4 -8 -9 0 -12 -90
-101 -102 -101 -5 0 -7 -4 -3 -9 3 -5 -4 -12 -15 -16 -11 -3 -20 -13 -20 -20
0 -8 -12 -21 -27 -29 -16 -8 -25 -15 -22 -16 4 0 -159 -165 -362 -367 -241
-242 -370 -377 -374 -395 -4 -16 -4 -39 -1 -52 6 -25 371 -398 380 -388 3 3 6
1 6 -5 0 -14 238 -253 252 -253 6 0 9 -2 6 -5 -6 -6 568 -584 605 -610 57 -40
34 -60 714 620 l636 635 -6 36 c-5 30 -44 73 -251 280 -136 135 -247 249 -248
252 0 4 -173 177 -382 385 -368 364 -383 377 -420 377 -36 0 -47 -9 -194 -155z
m336 -189 c111 -111 133 -138 127 -155 -3 -12 -10 -19 -15 -16 -5 3 -10 1 -12
-5 -4 -12 -248 -259 -248 -251 0 3 -9 -7 -20 -24 -11 -16 -20 -26 -20 -21 0
18 -29 -29 -30 -47 0 -10 -4 -16 -10 -12 -5 3 -3 -11 3 -31 9 -26 75 -98 227
-250 117 -118 217 -214 221 -214 5 0 12 0 15 1 4 0 10 -5 15 -12 6 -10 11 -10
22 -1 7 7 16 10 19 7 6 -7 148 134 148 148 0 6 2 8 5 5 3 -3 53 41 111 98 59
57 109 104 113 104 7 0 18 -11 174 -170 83 -85 108 -115 95 -118 -10 -2 -18
-7 -18 -12 0 -12 -731 -740 -743 -740 -6 0 -8 -3 -4 -6 8 -8 -16 -33 -25 -27
-5 2 -8 -1 -8 -6 0 -6 -64 -74 -142 -151 l-142 -140 -30 28 c-55 51 -96 96
-96 106 0 5 -3 7 -6 4 -5 -6 -136 124 -142 141 -1 4 79 89 179 190 l181 182
-5 40 c-4 34 -15 51 -66 99 -33 33 -61 63 -61 69 0 5 -9 13 -20 16 -11 4 -18
11 -15 16 4 5 2 9 -2 9 -10 0 -203 188 -203 198 -1 14 -90 76 -112 78 -37 3
-56 -12 -196 -153 -73 -73 -138 -133 -144 -133 -6 0 -9 -3 -6 -6 8 -7 -51 -64
-67 -64 -6 0 -72 61 -147 135 -113 113 -133 137 -119 145 9 5 13 10 9 10 -3 0
224 231 505 513 282 283 515 512 520 510 4 -2 7 0 7 6 0 11 28 41 38 41 4 0
67 -61 140 -134z m292 -287 c0 -4 55 -62 123 -129 67 -66 122 -126 122 -133 0
-14 -37 -53 -47 -50 -5 2 -8 -1 -8 -6 0 -13 -198 -210 -205 -203 -3 3 -5 0 -5
-6 0 -7 -4 -12 -8 -12 -12 0 -266 258 -270 273 -2 10 112 137 120 133 2 -1 19
16 39 36 21 21 35 38 33 38 -2 0 13 15 34 34 33 31 72 44 72 25z m-693 -934
c119 -120 134 -137 122 -152 -34 -40 -161 -163 -169 -163 -6 0 -9 -4 -8 -8 3
-10 -79 -87 -92 -87 -11 0 -171 154 -193 185 -9 14 -17 22 -17 18 0 -4 -13 7
-30 24 -16 16 -30 35 -30 42 0 16 88 106 103 106 6 0 8 2 5 5 -5 6 121 135
133 135 4 0 9 7 13 15 3 8 11 15 17 15 6 0 72 -61 146 -135z"/>
</g>
</svg>
