<svg xmlns="http://www.w3.org/2000/svg" viewBox="0 0 750 282"><path fill="#065c79" d="M27.94 4.86C35.77 1.42 44.44.21 52.96.54c217.68.04 435.37.01 653.05.02 11.32.4 22.77 4.42 30.9 12.5 7.46 7.22 12.08 17.46 12.03 27.9-.05 67.7.04 135.4-.04 203.1-.53 19.1-16.79 35.56-35.47 37.94H39.59c-10.11-1.44-19.61-6.55-26.42-14.16-6.62-7.26-10.36-17.03-10.39-26.85-.01-63.01 0-126.02-.01-189.02.03-6.68-.43-13.49 1.44-19.98C7.46 19.94 16.65 9.94 27.94 4.86z"/><path fill="#f9fbfc" d="M17.31 17.29C24.92 9.27 35.96 4.8 46.99 4.88c70.26.02 140.52-.01 210.79.01-.01 91.24-.05 182.49.02 273.73-70.28.06-140.55 0-210.82.03-6.34.06-12.67-1.45-18.37-4.21-12.71-6-21.78-19.29-21.9-33.47-.02-66.01 0-132.02-.01-198.03.09-9.5 3.89-18.91 10.61-25.65z"/><path fill="#065c79" d="M132.35 21.5c.87.55 1.74 1.11 2.62 1.66-2.15 4.23-2.47 9.96 1.62 13.17 8.55 6.49 17.39 12.61 26.02 18.99 5.5 4.15 11.79 7.65 15.62 13.56 7.22 10.35 7.38 25.11.16 35.5-7.45 10.42-15.03 20.74-22.51 31.14l-2.64-2.01c1.43-2.99 3.15-6.04 3.18-9.44.14-5.54-2.66-11.06-7.19-14.25-9.26-6.74-18.59-13.4-27.84-20.16-6.41-4.64-10.79-11.86-12.2-19.62-1.77-8.4.59-17.37 5.57-24.27 5.83-8.12 11.75-16.17 17.59-24.27z"/><path fill="#f9fbfc" d="M320.51 86.45c3.18.01 6.37.01 9.56.04 6.72 15.79 13.38 31.61 20.19 47.36-3.64.05-7.27.06-10.91-.01-1.41-3.5-2.83-6.99-4.27-10.48-6.64.02-13.27-.01-19.91.02-1.45 3.47-2.88 6.95-4.24 10.46-3.55.06-7.1.06-10.65.02 6.8-15.78 13.43-31.63 20.23-47.41zm36.87 4.86c9.83-7.76 25.26-6.82 34.24 1.89-2.2 2.52-4.41 5.04-6.54 7.62-4.62-3.93-11.04-6.82-17.05-4.32-8.24 3.08-11.1 14.04-6.97 21.4 2.66 5.39 9.23 8.33 15.05 6.9 3.54-.65 6.42-2.95 9.2-5.08 2.21 2.2 4.42 4.39 6.64 6.58-4.48 4.63-10.42 8.06-16.99 8.28-9.29.96-18.97-3.77-23.49-12.03-5.75-10.04-3.37-24.11 5.91-31.24zm51.05-3.7c9.35-3.28 20.4-1.36 27.67 5.54-2.17 2.6-4.39 5.14-6.66 7.65-4.22-3.64-9.88-6.4-15.55-4.76-7.9 2.03-12.11 11.49-9.55 18.98 1.67 6.26 8.09 10.91 14.61 10.04 4.19-.32 7.66-2.85 10.87-5.33 2.17 2.22 4.38 4.42 6.59 6.6-8.73 9.94-25.27 11.24-35.3 2.57-6.96-5.98-9.99-16.14-7.41-24.94 1.78-7.47 7.52-13.77 14.73-16.35zm32.38-.86c7.07.01 14.15-.01 21.23-.01 4.85.04 10.03 1.05 13.72 4.43 5.19 4.78 5.84 13.21 2.61 19.27-1.68 3.26-4.96 5.12-8.03 6.85 3.77 5.54 7.58 11.06 11.36 16.59-4.04-.2-8.28.54-12.2-.39-3.83-4.53-6.32-10.11-10.35-14.48-2.62-.25-5.26-.12-7.89-.12.02 4.98.01 9.97.02 14.96-3.5.05-6.99.05-10.49-.01.03-15.7 0-31.39.02-47.09zm44.87 0c11.86 0 23.73-.01 35.59 0 .02 3.02.02 6.03.03 9.05-8.37.64-16.76.25-25.13.32-.04 3.13-.05 6.27-.06 9.4 7.39.02 14.78 0 22.18.02-.01 3.05-.01 6.09 0 9.14-7.38.05-14.77.02-22.15.02-.01 3.33-.01 6.66-.01 10 8.47-.01 16.95-.01 25.42-.01 0 3.06 0 6.13.01 9.2-11.97-.01-23.93.04-35.9-.03.02-15.7 0-31.4.02-47.11zm41.08 0c8.1.28 16.29-.66 24.33.64 8.14 1.48 15.58 7.3 18.08 15.33 2.6 7.73 1.01 16.85-4.5 22.95-4.64 5.32-11.71 8.06-18.67 8.2-6.42.08-12.83 0-19.24 0V86.75zm49.49 47.13c.02-15.72-.01-31.43.02-47.15 3.42.02 6.84.02 10.27.02.03 15.71-.01 31.42.02 47.14-3.44 0-6.88 0-10.31-.01zm15.1-37.52c.03-3.21.03-6.41.05-9.62 12.95.02 25.91.02 38.87 0 0 3.21 0 6.42.02 9.62-4.79.01-9.57-.01-14.34.02-.01 12.5-.01 25 0 37.5-3.45.01-6.9.01-10.34.01.02-12.51-.03-25.02.03-37.53-4.77 0-9.53.01-14.29 0zm42.85 37.52c.04-15.71-.03-31.43.03-47.14 11.8.02 23.59.01 35.38 0 .02 3.06.03 6.12.02 9.18-8.34.32-16.71.39-25.05-.08-.04 3.23-.04 6.47-.05 9.71 7.37-.03 14.73-.01 22.1-.02 0 3.06 0 6.12.02 9.18-7.37 0-14.74.01-22.1-.02-.01 3.35-.01 6.7.01 10.05 8.5-.1 17-.03 25.51-.04v9.18c-11.95.03-23.91.02-35.87 0zm41.25.01c.02-15.72-.01-31.43.02-47.15 8.2.32 16.52-.71 24.65.72 8.34 1.61 15.81 7.91 17.99 16.25 3.22 10.21-1.7 22.34-11.36 27.11-9.66 5.02-20.89 2.44-31.3 3.07z"/><path fill="#065c79" d="M113.14 93.86c1.06.78 2.12 1.56 3.17 2.36-1.53 3.23-.51 6.87 2.64 8.59 7.34 5.39 14.84 10.57 22.07 16.11 8.31 6.61 10.14 19.61 4.29 28.39-4 5.82-8.31 11.43-12.38 17.2-1.06-.79-2.11-1.57-3.17-2.35.42-2.35 1.47-5.32-.77-7.09-8.18-6.56-17.19-12.06-25.22-18.8-7.3-6.9-8.59-19.11-2.9-27.39 3.98-5.75 8.24-11.3 12.27-17.02zm338.12 2.4c4.86.25 9.91-.7 14.65.63 5.26 1.74 5.12 10.31-.05 12.08-4.7 1.45-9.75.44-14.59.73 0-4.48 0-8.96-.01-13.44zm85.94-.01c5.6.21 11.97-1.1 16.79 2.59 7.61 5.35 7.43 18.54-.57 23.46-4.83 3.09-10.8 2.04-16.22 2.2.01-9.42.02-18.83 0-28.25zm148.64-.01c5.51.25 11.71-1.06 16.52 2.39 7.84 5.19 7.83 18.54-.14 23.59-4.86 3.17-10.91 2.12-16.39 2.28.01-9.42 0-18.84.01-28.26zm-360.79 2.63c2.21 5.09 4.2 10.27 6.39 15.37-4.18 0-8.35.01-12.53-.02 2.02-5.12 4.18-10.2 6.14-15.35z"/><path fill="#f9fbfc" d="M550.59 164.54c8.63-4.42 19.3-1.79 26.84 3.67-1.75 2.66-3.55 5.27-5.32 7.91-4.71-2.79-10.38-6.07-15.97-3.95-3.04 1.04-3.52 5.73-.49 7.09 6.44 3.15 14.44 3.07 19.87 8.23 6.04 6.23 3.49 18.13-4.5 21.51-9.85 4.2-21.49 1.19-29.58-5.36 1.96-2.57 4.02-5.06 6.14-7.52 4.39 3.45 9.74 6.25 15.51 5.55 2.96.06 6.38-2.42 5.39-5.7-1.42-2.74-4.76-3.35-7.43-4.21-5.23-1.56-11.2-2.47-15.03-6.73-5.02-6.3-2.82-17 4.57-20.49zm-246.29-1.42c7.84.06 15.68-.17 23.51.1 5.21.22 11.03 2.49 13.14 7.64 2.22 5.31-.03 11.65-4.94 14.56 2.62 1.52 5.48 3.04 7.03 5.77 2.37 4.68 1.75 11-2.14 14.69-3.75 3.39-9.03 4.11-13.88 4.35-7.56.08-15.13-.03-22.69.03-.06-15.71 0-31.43-.03-47.14zm43.91 0c3.42-.02 6.85-.01 10.27-.01 0 8.95-.02 17.9-.01 26.84-.12 3.96 1.38 8.3 5.02 10.3 3.92 1.86 9.1 1.63 12.41-1.37 2.4-2.24 3.01-5.68 2.93-8.83-.01-8.96-.01-17.93-.02-26.89 3.49-.06 6.99-.06 10.49-.04-.03 8.95.01 17.91 0 26.86-.1 5.85-1.61 12.16-6.18 16.16-4.88 4.46-11.96 5.22-18.27 4.54-5.13-.49-10.25-2.97-13.16-7.33-2.65-3.88-3.48-8.69-3.48-13.31-.01-8.98.01-17.95 0-26.92zm53.55 1.52c8.65-4.5 19.57-2.06 27.03 3.72-1.79 2.59-3.59 5.17-5.4 7.74-4.7-2.88-10.56-6.15-16.12-3.81-2.77 1.01-3.08 5.51-.43 6.82 6.55 3.42 14.96 3.13 20.34 8.74 5.83 6.44 2.93 17.99-5.04 21.25-9.8 4.04-21.36 1.06-29.34-5.53 1.99-2.51 4.03-4.98 6.05-7.47 5.03 3.98 11.76 7.13 18.22 4.98 3.49-.85 3.75-6.24.4-7.44-6.88-3.49-16.47-2.92-21.1-10.03-3.74-6.39-1.26-15.58 5.39-18.97zm34.02-1.52c3.48-.02 6.97-.02 10.46.02 0 14.28-.04 28.56.02 42.84-.17 1.37.26 2.95-.53 4.17-3.31.26-6.64.07-9.95.1-.01-15.71 0-31.42 0-47.13zm18.08.05c3.26-.07 6.53-.08 9.79-.02 7.29 9.58 14.49 19.24 21.85 28.77.03-9.61-.01-19.21.02-28.81 3.43-.01 6.87-.01 10.32.01-.01 15.71.01 31.42-.01 47.14-2.93-.01-5.85-.01-8.77 0-7.57-9.97-15.15-19.93-22.66-29.93-.08 9.97-.01 19.95-.04 29.92-3.42 0-6.84 0-10.25.01-.54-15.69-.09-31.4-.25-47.09zm49.56-.05c11.78-.02 23.57-.02 35.36 0-.01 3.06-.01 6.12 0 9.19-8.36 0-16.73.01-25.09-.01 0 3.19 0 6.39.01 9.58 7.36 0 14.72 0 22.09.01-.03 3.08-.03 6.16-.05 9.24-7.35-.01-14.69.01-22.04-.02-.02 3.25-.02 6.5-.01 9.75 8.54.12 17.09-.28 25.62.29-.01 3.03-.01 6.06-.02 9.09-11.96.02-23.91-.02-35.87.03 0-15.72.01-31.44 0-47.15z"/><path fill="#f9fbfc" d="M588.73 164.72c8.66-4.61 19.69-2.17 27.17 3.66-1.79 2.56-3.58 5.12-5.35 7.7-4.58-2.73-9.96-5.76-15.45-4.13-3.2.73-4.17 5.56-1.16 7.14 6.32 3.35 14.32 3.12 19.78 8.18 6.2 5.81 4.14 17.36-3.28 21.2-9.89 5.01-22.31 1.96-30.54-4.94 2.02-2.48 4.06-4.94 6.08-7.42 5.01 3.97 11.66 7.07 18.12 5 2.86-.76 4.16-4.86 1.58-6.71-6.24-4.09-14.82-3.29-20.43-8.6-6-5.95-3.93-17.24 3.48-21.08z"/><path fill="#065c79" d="M83.1 182.73c1.11-3.75 2.23-7.49 3.42-11.2 30.65.01 61.31.03 91.96-.02 1.2 3.72 2.3 7.47 3.41 11.22-8.14.02-16.29.04-24.44-.01-1.7 4.92-2.93 10-4.72 14.89-3.14 1-6.49.31-9.72.3-10.25-.14-20.51.03-30.77-.08-1.5-5.06-3.07-10.1-4.7-15.12-8.15.06-16.3.05-24.44.02zm231.28-10.61c4.63.19 9.39-.56 13.93.6 3.78.99 4.43 6.8.75 8.37-4.64 1.87-9.8.75-14.65 1.02-.04-3.33-.04-6.66-.03-9.99zm-.01 18.58c5.22.19 10.52-.48 15.69.41 2.57.32 3.58 2.86 4.6 4.88-1.04 2.05-2.08 4.59-4.74 4.8-5.1.98-10.36.23-15.53.45-.02-3.51-.01-7.03-.02-10.54zM58.16 206.76c7.93.01 15.85-.01 23.78-.01 5.25.09 10.96.68 15.1 4.25 5.04 4.15 5.98 12.15 2.38 17.5-1.23 1.72-2.92 3.01-4.5 4.38 3.28 1.5 6.61 3.49 8.26 6.84 2.64 5.58 1.64 13.12-3.28 17.14-4.47 3.49-10.35 4.43-15.88 4.4-8.62-.03-17.24-.02-25.86-.02 0-18.16-.02-36.32 0-54.48zm51.44 0c8.13.01 16.26-.03 24.39 0 5.58.11 11.8 1.12 15.68 5.55 3.25 3.51 3.74 8.73 2.51 13.19-.92 3.16-3.54 5.33-5.98 7.34 3.66 1.74 7.51 4.05 8.82 8.16 1.54 5.04.97 11.23-3 15.04-4.18 4.09-10.34 5.1-15.97 5.22-8.82-.02-17.63-.02-26.45-.02-.01-18.16-.02-36.32 0-54.48zm51.23.01c8.39.01 16.78-.06 25.17.01 5.52.18 11.67 1.4 15.32 5.95 2.91 3.32 2.88 8.05 2.27 12.18-.72 3.47-3.46 5.9-6.16 7.94 4.05 1.77 8.29 4.55 9.18 9.23.48 4.16.77 8.93-1.99 12.42-3.81 5.13-10.6 6.58-16.64 6.74-9.05.02-18.1 0-27.16-.01 0-18.15-.01-36.31.01-54.46z"/><path fill="#f9fbfc" d="M70.11 217.5c5.46.34 11.21-.91 16.47.97 4.26 1.66 3.7 8.49-.68 9.6-5.15 1.26-10.55.42-15.8.62.02-3.73.02-7.46.01-11.19zm51.28 0c5.4.3 11.02-.82 16.25.85 4.44 1.54 4 8.66-.55 9.75-5.12 1.23-10.48.38-15.7.6.01-3.74.01-7.47 0-11.2zm51.23.01c5.37.27 10.94-.79 16.16.79 4.53 1.43 4.06 8.82-.54 9.84-5.11 1.15-10.43.37-15.62.54v-11.17z"/><path fill="#065c79" d="M216.35 238.38c6.41-2.93 14.74.96 16.42 7.84 2.4 7.36-3.9 15.83-11.7 15.38-6.71.38-12.78-5.96-12.03-12.66.03-4.58 3.17-8.77 7.31-10.56z"/><path fill="#f9fbfc" d="M70.11 238.89c5.93.25 11.98-.61 17.84.52 3.38.5 5.72 4.34 4.18 7.51-1.05 2.7-4.21 3.41-6.79 3.66-5.07.3-10.16.04-15.23.11 0-3.94.01-7.87 0-11.8zm51.28.01c6.15.27 12.46-.74 18.51.67 4.66 1.02 5.32 8.35.82 10.05-6.2 2.07-12.91.69-19.32 1.08 0-3.94.01-7.87-.01-11.8zm51.22.01c6.16.22 12.45-.7 18.52.65 4.82.87 5.22 8.68.66 10.16-6.19 1.87-12.8.64-19.17.96.01-3.92 0-7.85-.01-11.77zm44.87.75c6.35-2.57 14.06 2.47 14.09 9.34.58 6.61-6.12 12.45-12.59 10.9-5.92-1.05-10.03-7.8-7.94-13.52.98-3.06 3.39-5.65 6.44-6.72z"/><path fill="#065c79" d="M216.16 242.73c3.36.34 7.69-1.06 10.21 1.9 1.32 2.47-.02 5.12-1.81 6.91.97 1.4 1.93 2.8 2.89 4.21l-3.57-.12c-1.26-1.91-2.6-3.92-4.99-4.47l-.04 4.54c-.68 0-2.04.01-2.72.01.01-4.33.01-8.66.03-12.98z"/><path fill="#f9fbfc" d="M218.87 245.45c1.66.03 3.31.09 4.97.19.62 2.97-2.02 3.47-4.35 3.89-.25-1.36-.43-2.72-.62-4.08z"/></svg>