<?xml version="1.0" encoding="UTF-8"?>
<svg width="148px" height="36px" viewBox="0 0 148 36" version="1.1" xmlns="http://www.w3.org/2000/svg" xmlns:xlink="http://www.w3.org/1999/xlink">
    <!-- Generator: Sketch 50.2 (55047) - http://www.bohemiancoding.com/sketch -->
    <title>Artboard 3</title>
    <desc>Created with Sketch.</desc>
    <defs></defs>
    <g id="Artboard-3" stroke="none" stroke-width="1" fill="none" fill-rule="evenodd">
        <g id="Trustpilot_brandmark_gr-blk_RGB" fill-rule="nonzero">
            <g id="Type" transform="translate(38.571429, 12.857143)" fill="#191919">
                <path d="M0.090861244,0.0767166535 L14.9791251,0.0767166535 L14.9791251,2.81294396 L9.12506494,2.81294396 L9.12506494,18.194633 L5.90598086,18.194633 L5.90598086,2.81294396 L0.0778810663,2.81294396 L0.0778810663,0.0767166535 L0.090861244,0.0767166535 Z M14.3430964,5.07608524 L17.0948941,5.07608524 L17.0948941,7.60773481 L17.1468148,7.60773481 C17.237676,7.24972376 17.4064183,6.90449882 17.6530417,6.57205998 C17.8996651,6.23962115 18.1982092,5.91996843 18.548674,5.65146014 C18.8991388,5.37016575 19.2885441,5.15280189 19.71689,4.97379637 C20.1452358,4.80757695 20.5865619,4.71807419 21.0278879,4.71807419 C21.3653725,4.71807419 21.6119959,4.7308603 21.7417977,4.74364641 C21.8715995,4.75643252 22.0014012,4.78200474 22.1441832,4.79479084 L22.1441832,7.58216259 C21.9365003,7.54380426 21.7288175,7.51823204 21.5081545,7.49265983 C21.2874915,7.46708761 21.0798086,7.4543015 20.8721258,7.4543015 C20.378879,7.4543015 19.9115926,7.55659037 19.4702666,7.748382 C19.0289405,7.94017364 18.6525154,8.23425414 18.3280109,8.6050513 C18.0035065,8.98863457 17.7439029,9.44893449 17.5492003,10.0115233 C17.3544976,10.5741121 17.2636364,11.2134175 17.2636364,11.9422257 L17.2636364,18.1818469 L14.3301162,18.1818469 L14.3301162,5.07608524 L14.3430964,5.07608524 Z M35.6305878,18.194633 L32.7489884,18.194633 L32.7489884,16.3662194 L32.6970677,16.3662194 C32.3336227,17.0310971 31.8014354,17.5553275 31.0875256,17.9516969 C30.3736159,18.3480663 29.6467259,18.552644 28.9068558,18.552644 C27.1545318,18.552644 25.8824744,18.1307024 25.1036637,17.2740331 C24.324853,16.4173639 23.9354477,15.1259669 23.9354477,13.3998421 L23.9354477,5.07608524 L26.8689679,5.07608524 L26.8689679,13.1185478 C26.8689679,14.2692976 27.0896309,15.0876085 27.5439371,15.5606946 C27.9852632,16.0337806 28.6212919,16.2767167 29.4260629,16.2767167 C30.0491114,16.2767167 30.5553383,16.1872139 30.970704,15.9954223 C31.3860697,15.8036306 31.7235543,15.5606946 31.9701777,15.2410418 C32.2297813,14.9341752 32.4115038,14.5505919 32.5283254,14.1158642 C32.645147,13.6811365 32.6970677,13.2080505 32.6970677,12.6966062 L32.6970677,5.08887135 L35.6305878,5.08887135 L35.6305878,18.194633 Z M40.6279563,13.9880032 C40.7188175,14.8318863 41.0433219,15.4200474 41.6014696,15.7652723 C42.1725974,16.0977111 42.8475666,16.2767167 43.6393575,16.2767167 C43.9119412,16.2767167 44.2234655,16.2511444 44.5739303,16.2127861 C44.9243951,16.1744278 45.2618797,16.084925 45.5604238,15.96985 C45.8719481,15.8547751 46.1185714,15.6757695 46.3262543,15.4456196 C46.5209569,15.2154696 46.6118182,14.9213891 46.598838,14.5505919 C46.5858578,14.1797948 46.4430759,13.8729282 46.1834723,13.6427782 C45.9238688,13.3998421 45.5993643,13.2208366 45.1969788,13.0674033 C44.7945933,12.9267561 44.3402871,12.798895 43.82108,12.6966062 C43.3018729,12.5943173 42.7826658,12.4792423 42.2504785,12.3641673 C41.705311,12.2490923 41.1731237,12.095659 40.6668968,11.9294396 C40.1606699,11.7632202 39.7063636,11.5330702 39.3039781,11.2389897 C38.9015926,10.9576953 38.5770882,10.5868982 38.343445,10.1393844 C38.0968216,9.69187056 37.98,9.14206788 37.98,8.47719021 C37.98,7.76116811 38.1617225,7.1730071 38.5121873,6.68713496 C38.8626521,6.20126283 39.3169583,5.81767956 39.8491456,5.52359905 C40.3943131,5.22951855 40.9914012,5.02494081 41.6533903,4.89707972 C42.3153794,4.78200474 42.9514081,4.71807419 43.5484962,4.71807419 C44.2364457,4.71807419 44.8984347,4.79479084 45.5214833,4.93543804 C46.1445318,5.07608524 46.7156596,5.3062352 47.2218865,5.63867403 C47.7281135,5.95832676 48.1434792,6.38026835 48.4809638,6.89171271 C48.8184484,7.40315706 49.0261312,8.0296764 49.1169925,8.75848461 L46.0536705,8.75848461 C45.9108886,8.06803473 45.5993643,7.5949487 45.0931374,7.36479874 C44.5869105,7.12186267 44.0028025,7.00678769 43.3537936,7.00678769 C43.1461107,7.00678769 42.8994874,7.0195738 42.6139234,7.05793212 C42.3283595,7.09629045 42.068756,7.16022099 41.8091524,7.24972376 C41.562529,7.33922652 41.3548462,7.47987372 41.1731237,7.65887924 C41.0043814,7.83788477 40.9135202,8.06803473 40.9135202,8.36211523 C40.9135202,8.72012628 41.0433219,9.00142068 41.2899453,9.21878453 C41.5365687,9.43614838 41.8610731,9.61515391 42.2634586,9.76858721 C42.6658442,9.90923441 43.1201504,10.0370955 43.6393575,10.1393844 C44.1585646,10.2416732 44.6907519,10.3567482 45.2359193,10.4718232 C45.7681066,10.5868982 46.2873137,10.7403315 46.8065208,10.9065509 C47.325728,11.0727703 47.7800342,11.3029203 48.1824197,11.5970008 C48.5848052,11.8910813 48.9093096,12.2490923 49.155933,12.68382 C49.4025564,13.1185478 49.5323582,13.6683504 49.5323582,14.3076559 C49.5323582,15.0876085 49.3506357,15.7397001 48.9871907,16.2895028 C48.6237457,16.8265193 48.1564593,17.2740331 47.5853315,17.606472 C47.0142037,17.9389108 46.3651948,18.194633 45.6642652,18.3480663 C44.9633356,18.5014996 44.262406,18.5782163 43.5744566,18.5782163 C42.730745,18.5782163 41.9519344,18.4887135 41.2380246,18.2969219 C40.5241148,18.1051302 39.9010663,17.8238358 39.3818592,17.4530387 C38.8626521,17.0694554 38.4472864,16.5963694 38.1487423,16.0337806 C37.8501982,15.4711918 37.6944361,14.793528 37.6684757,14.0135754 L40.6279563,14.0135754 L40.6279563,13.9880032 Z M50.3111688,5.07608524 L52.5307792,5.07608524 L52.5307792,1.13796369 L55.4642994,1.13796369 L55.4642994,5.07608524 L58.1122556,5.07608524 L58.1122556,7.23693765 L55.4642994,7.23693765 L55.4642994,14.2437253 C55.4642994,14.5505919 55.4772796,14.8063141 55.5032399,15.0364641 C55.5292003,15.2538279 55.5941012,15.4456196 55.6849624,15.5990529 C55.7758237,15.7524862 55.9186056,15.8675612 56.1133083,15.9442778 C56.3080109,16.0209945 56.5546343,16.0593528 56.8921189,16.0593528 C57.0998018,16.0593528 57.3074846,16.0593528 57.5151675,16.0465667 C57.7228503,16.0337806 57.9305332,16.0082084 58.138216,15.9570639 L58.138216,18.194633 C57.8137116,18.2329913 57.4892071,18.2585635 57.190663,18.2969219 C56.8791388,18.3352802 56.5676145,18.3480663 56.24311,18.3480663 C55.4642994,18.3480663 54.8412509,18.2713496 54.3739645,18.1307024 C53.9066781,17.9900552 53.5302529,17.7726914 53.2706494,17.491397 C52.9980656,17.2101026 52.8293233,16.8648777 52.7254819,16.4429361 C52.6346206,16.0209945 52.5697198,15.5351223 52.5567396,14.9981058 L52.5567396,7.26250987 L50.3371292,7.26250987 L50.3371292,5.07608524 L50.3111688,5.07608524 Z M60.1890841,5.07608524 L62.9668421,5.07608524 L62.9668421,6.85335438 L63.0187628,6.85335438 C63.4341285,6.08618785 64.0052563,5.54917127 64.7451265,5.21673244 C65.4849966,4.88429361 66.2767874,4.71807419 67.1464593,4.71807419 C68.1978537,4.71807419 69.1064662,4.89707972 69.8852768,5.26787687 C70.6640875,5.62588792 71.3130964,6.12454617 71.8323035,6.76385162 C72.3515106,7.40315706 72.7279357,8.14475138 72.9875393,8.98863457 C73.2471429,9.83251776 73.3769446,10.7403315 73.3769446,11.6992897 C73.3769446,12.5815312 73.260123,13.4382005 73.0264798,14.2565114 C72.7928366,15.0876085 72.4423718,15.8164167 71.9750854,16.4557222 C71.507799,17.0950276 70.9107109,17.5936859 70.1838209,17.9772691 C69.456931,18.3608524 68.6132194,18.552644 67.6267259,18.552644 C67.19838,18.552644 66.7700342,18.5142857 66.3416883,18.4375691 C65.9133424,18.3608524 65.4979768,18.2329913 65.1085714,18.0667719 C64.7191661,17.9005525 64.3427409,17.6831886 64.0182365,17.4146803 C63.6807519,17.1461721 63.4081681,16.8393054 63.1745249,16.4940805 L63.1226042,16.4940805 L63.1226042,23.0405683 L60.1890841,23.0405683 L60.1890841,5.07608524 Z M70.4434245,11.6481452 C70.4434245,11.0599842 70.3655434,10.4846093 70.2097813,9.92202052 C70.0540191,9.35943173 69.8203759,8.87355959 69.5088517,8.43883189 C69.1973274,8.00410418 68.8079221,7.65887924 68.3536159,7.40315706 C67.8863295,7.14743489 67.3541422,7.00678769 66.757054,7.00678769 C65.5239371,7.00678769 64.5893643,7.42872928 63.9663158,8.27261247 C63.3432673,9.11649566 63.031743,10.2416732 63.031743,11.6481452 C63.031743,12.3130229 63.1096241,12.9267561 63.2783664,13.4893449 C63.4471087,14.0519337 63.6807519,14.5378058 64.0182365,14.9469613 C64.3427409,15.3561168 64.7321463,15.6757695 65.1864525,15.9059195 C65.6407587,16.1488556 66.172946,16.2639305 66.7700342,16.2639305 C67.4450034,16.2639305 68.0031511,16.1232833 68.4704375,15.8547751 C68.9377239,15.5862668 69.314149,15.2282557 69.6126931,14.8063141 C69.9112372,14.3715864 70.1319002,13.8857143 70.261702,13.3359116 C70.3785236,12.7861089 70.4434245,12.2235201 70.4434245,11.6481452 Z M75.6225154,0.0767166535 L78.5560355,0.0767166535 L78.5560355,2.81294396 L75.6225154,2.81294396 L75.6225154,0.0767166535 Z M75.6225154,5.07608524 L78.5560355,5.07608524 L78.5560355,18.194633 L75.6225154,18.194633 L75.6225154,5.07608524 Z M81.1780314,0.0767166535 L84.1115516,0.0767166535 L84.1115516,18.194633 L81.1780314,18.194633 L81.1780314,0.0767166535 Z M93.1068148,18.552644 C92.0424402,18.552644 91.0948872,18.3736385 90.2641558,18.0284136 C89.4334245,17.6831886 88.7324949,17.1973165 88.1483869,16.5963694 C87.5772591,15.9826361 87.135933,15.2538279 86.8373889,14.4099448 C86.5388448,13.5660616 86.3830827,12.6326756 86.3830827,11.622573 C86.3830827,10.6252565 86.5388448,9.70465667 86.8373889,8.86077348 C87.135933,8.01689029 87.5772591,7.28808208 88.1483869,6.67434886 C88.7195147,6.06061563 89.4334245,5.5875296 90.2641558,5.24230466 C91.0948872,4.89707972 92.0424402,4.71807419 93.1068148,4.71807419 C94.1711893,4.71807419 95.1187423,4.89707972 95.9494737,5.24230466 C96.7802051,5.5875296 97.4811347,6.07340174 98.0652427,6.67434886 C98.6363705,7.28808208 99.0776965,8.01689029 99.3762406,8.86077348 C99.6747847,9.70465667 99.8305468,10.6252565 99.8305468,11.622573 C99.8305468,12.6326756 99.6747847,13.5660616 99.3762406,14.4099448 C99.0776965,15.2538279 98.6363705,15.9826361 98.0652427,16.5963694 C97.4941148,17.2101026 96.7802051,17.6831886 95.9494737,18.0284136 C95.1187423,18.3736385 94.1711893,18.552644 93.1068148,18.552644 Z M93.1068148,16.2639305 C93.7558237,16.2639305 94.3269515,16.1232833 94.807218,15.8547751 C95.2874846,15.5862668 95.67689,15.2282557 95.9884142,14.793528 C96.2999385,14.3588003 96.5206015,13.8601421 96.6763636,13.3103394 C96.8191456,12.7605367 96.8970267,12.1979479 96.8970267,11.622573 C96.8970267,11.0599842 96.8191456,10.5101815 96.6763636,9.94759274 C96.5335817,9.38500395 96.2999385,8.89913181 95.9884142,8.4644041 C95.67689,8.0296764 95.2874846,7.68445146 94.807218,7.41594317 C94.3269515,7.14743489 93.7558237,7.00678769 93.1068148,7.00678769 C92.4578059,7.00678769 91.8866781,7.14743489 91.4064115,7.41594317 C90.9261449,7.68445146 90.5367396,8.04246251 90.2252153,8.4644041 C89.913691,8.89913181 89.693028,9.38500395 89.5372659,9.94759274 C89.3944839,10.5101815 89.3166029,11.0599842 89.3166029,11.622573 C89.3166029,12.1979479 89.3944839,12.7605367 89.5372659,13.3103394 C89.6800478,13.8601421 89.913691,14.3588003 90.2252153,14.793528 C90.5367396,15.2282557 90.9261449,15.5862668 91.4064115,15.8547751 C91.8866781,16.1360695 92.4578059,16.2639305 93.1068148,16.2639305 Z M100.687239,5.07608524 L102.906849,5.07608524 L102.906849,1.13796369 L105.840369,1.13796369 L105.840369,5.07608524 L108.488325,5.07608524 L108.488325,7.23693765 L105.840369,7.23693765 L105.840369,14.2437253 C105.840369,14.5505919 105.853349,14.8063141 105.87931,15.0364641 C105.90527,15.2538279 105.970171,15.4456196 106.061032,15.5990529 C106.151893,15.7524862 106.294675,15.8675612 106.489378,15.9442778 C106.684081,16.0209945 106.930704,16.0593528 107.268189,16.0593528 C107.475871,16.0593528 107.683554,16.0593528 107.891237,16.0465667 C108.09892,16.0337806 108.306603,16.0082084 108.514286,15.9570639 L108.514286,18.194633 C108.189781,18.2329913 107.865277,18.2585635 107.566733,18.2969219 C107.255208,18.3352802 106.943684,18.3480663 106.61918,18.3480663 C105.840369,18.3480663 105.217321,18.2713496 104.750034,18.1307024 C104.282748,17.9900552 103.906323,17.7726914 103.646719,17.491397 C103.374135,17.2101026 103.205393,16.8648777 103.101552,16.4429361 C103.01069,16.0209945 102.945789,15.5351223 102.932809,14.9981058 L102.932809,7.26250987 L100.713199,7.26250987 L100.713199,5.07608524 L100.687239,5.07608524 Z" id="Shape"></path>
            </g>
            <g id="Star">
                <polygon id="Shape" fill="#00B67A" points="35.3943908 12.7754153 21.8785084 12.7754153 17.7037185 0 13.5158824 12.7754153 0 12.7624585 10.9457773 20.666113 6.75794118 33.4285714 17.7037185 25.5378738 28.6364496 33.4285714 24.4616597 20.666113 35.3943908 12.7754153 35.3943908 12.7754153"></polygon>
                <polygon id="Shape" fill="#005128" points="25.4009874 23.5554817 24.4616597 20.666113 17.7037185 25.5378738"></polygon>
            </g>
        </g>
    </g>
</svg>