<svg width="268" height="50" xmlns="../../../../../external.html?link=http://www.w3.org/2000/svg"><path d="M115.3.47c3.497.001 6.994.006 10.49-.003.015 6.383.01 12.763.023 19.146 1.258-1.555 2.789-2.92 4.644-3.717 3.17-1.442 6.979-1.473 10.152-.025 2.34 1.067 4.153 3.092 5.176 5.43 1.01 2.26 1.423 4.742 1.5 7.202.003 6.827 0 13.655.002 20.482-3.503 0-7.007.004-10.51-.002-.015-6.262.025-12.528 0-18.793-.075-2.031-.413-4.294-1.973-5.75-2.118-1.847-5.712-1.512-7.52.622-.866 1.009-1.468 2.29-1.462 3.637-.002 6.763.032 13.522.015 20.282-3.522.008-7.046.007-10.567.002-.008-16.171.008-32.342.03-48.513zM222.217.467c-.015 16.172-.055 32.346-.043 48.518 3.512.018 7.023-.034 10.532.026.07-1.461.01-2.926.03-4.39.009-14.716-.014-29.434-.032-44.151-3.494.001-6.99.008-10.487-.003zM2.986 2.933C2.017 18.283.985 33.633 0 48.981c3.262.013 6.522-.002 9.783.008.592-10.994 1.163-21.99 1.521-32.994.044-1.224.05-2.45.187-3.666 1.31 6.558 2.781 13.088 4.613 19.525 1.529 5.457 3.024 10.923 4.578 16.372 2.76-.005 5.515 0 8.274-.003.957-3.027 1.904-6.057 2.854-9.086 2.625-8.493 5.5-16.913 7.699-25.53.1-.418.222-.83.378-1.23.059 12.21.663 24.41 1.174 36.608 3.433 0 6.864.007 10.296-.004C50.488 33.63 49.688 18.27 48.82 2.92c-4.598.017-9.197 0-13.793.008-1.624 5.144-3.298 10.273-4.93 15.415-1.665 5.447-3.1 10.962-4.424 16.5-.332-.4-.324-.945-.44-1.429a185.103 185.103 0 0 0-4.26-17.036c-1.319-4.487-2.657-8.967-3.97-13.456-4.673.015-9.344-.01-14.017.012zm94.492 12.269c-3.466.661-6.857 2.603-8.583 5.77-1.447 2.69-1.735 6.167-.2 8.883 1.33 2.326 3.64 3.896 6.036 4.973 1.739.808 3.632 1.223 5.36 2.067.723.371 1.5.801 1.866 1.571.455.986.323 2.332-.582 3.023-1.048.807-2.443.851-3.709.888-3.1-.12-6.15-1.01-8.904-2.424-.192.21-.188.535-.277.795-.526 2.21-1.132 4.398-1.656 6.607 2.186 1.142 4.605 1.785 7.04 2.13 3.521.428 7.172.395 10.593-.644 2.413-.736 4.69-2.127 6.155-4.213 1.783-2.55 2.123-5.937 1.246-8.882-.68-2.299-2.43-4.13-4.471-5.311-2.396-1.504-5.241-1.996-7.735-3.288-.759-.404-1.567-.947-1.804-1.827-.295-.974.194-2.065 1.051-2.58 1.02-.607 2.254-.71 3.417-.656 2.347.162 4.639.844 6.757 1.852.553-2.407 1.303-4.773 1.72-7.206-4.157-1.801-8.868-2.38-13.32-1.528zm150.512.14c-3.082.788-5.913 2.544-7.95 4.993-2.577 3.04-3.966 6.974-4.231 10.924-.192 3.34.262 6.787 1.743 9.815 1.395 2.9 3.815 5.272 6.715 6.652 4.027 1.965 8.65 2.204 13.043 1.81 2.978-.233 5.945-.837 8.716-1.976-.466-2.368-.938-4.732-1.397-7.101-2.63.854-5.373 1.354-8.14 1.414-2.693.128-5.549-.2-7.858-1.7-1.585-.994-2.705-2.743-2.794-4.631 7.215.006 14.428.03 21.642.09.816-4.657.37-9.68-1.9-13.885-1.7-3.18-4.76-5.583-8.261-6.454-3.045-.759-6.29-.723-9.328.048zm1.064 7.198c2.274-1.386 5.62-1.185 7.4.916 1.17 1.357 1.606 3.193 1.646 4.947-4.124.004-8.246-.005-12.37.004.274-2.28 1.323-4.613 3.324-5.867zM184.425.47c-.01 11.392-.034 22.785-.032 34.18.021 4.772.023 9.547-.278 14.314 2.977.062 5.958-.015 8.938.039.226-1.54.265-3.098.466-4.642.57.777 1.098 1.596 1.804 2.266 2.133 2.123 5.189 3.136 8.164 3.1 3.667.126 7.347-1.26 10.063-3.72 2.744-2.445 4.427-5.906 5.122-9.478.61-3.23.625-6.583-.025-9.806-.74-3.595-2.544-7.102-5.52-9.342-2.59-1.999-5.966-2.816-9.2-2.523-3.202.217-6.465 1.538-8.483 4.109-.138.185-.327.312-.511.438-.01-6.313.005-12.627-.028-18.942-3.494.017-6.988.008-10.48.007zm15.771 22.467c2.008-.352 4.215.23 5.683 1.675 1.31 1.26 2.011 3.021 2.338 4.782.386 2.295.32 4.694-.346 6.933-.538 1.758-1.601 3.453-3.261 4.34-1.974 1.058-4.533 1.135-6.47-.05-1.916-1.14-3.171-3.302-3.186-5.532.006-1.99-.038-3.979.013-5.968.134-2.912 2.326-5.642 5.23-6.18zM56.001 17.83c.675 2.21 1.281 4.442 1.955 6.654 2.479-1.419 5.303-2.193 8.14-2.432 1.949-.096 4.084-.064 5.741 1.106 1.144.772 1.634 2.212 1.521 3.547a37.46 37.46 0 0 0-4.76.22c-4.08.462-8.33 1.52-11.484 4.29-4.104 3.538-4.743 10.358-1.366 14.595 2.068 2.66 5.5 4.037 8.826 3.914 3.634.104 7.342-1.336 9.723-4.132.289 1.11.304 2.321.725 3.378 3.14.025 6.285.025 9.428-.002-.422-2.201-.481-4.447-.558-6.682-.01-4.24 0-8.483-.008-12.726.027-2.14-.197-4.3-.859-6.34-.848-2.701-2.676-5.112-5.179-6.475-3.498-1.936-7.653-2.123-11.552-1.805-3.563.32-7.127 1.185-10.293 2.89zm11.715 16.164c1.927-.624 3.972-.768 5.986-.785-.003 1.403.04 2.81-.02 4.21-.135 2.989-3.222 5.22-6.095 4.928-1.237-.097-2.53-.697-3.111-1.844-.822-1.552-.636-3.658.606-4.94.71-.76 1.665-1.23 2.634-1.57zm84.748-16.16c.673 2.207 1.298 4.428 1.937 6.644 2.56-1.425 5.453-2.242 8.375-2.441 1.885-.08 3.933.006 5.536 1.124 1.142.776 1.61 2.213 1.534 3.544a38.163 38.163 0 0 0-6.625.467c-3.54.598-7.177 1.732-9.851 4.237-4.123 3.749-4.51 10.913-.651 14.982 2.14 2.362 5.41 3.481 8.555 3.333 3.567.052 7.16-1.407 9.5-4.14.197 1.125.428 2.245.604 3.375 3.178.05 6.359.03 9.537.01-.53-2.896-.566-5.856-.55-8.79 0-3.332 0-6.66-.005-9.992.013-1.692-.051-3.399-.38-5.063-.528-2.812-1.872-5.557-4.151-7.355-2.825-2.272-6.574-2.933-10.108-2.954-4.557.013-9.213.846-13.257 3.019zm11.732 16.155c1.928-.619 3.967-.763 5.98-.783-.034 1.698.145 3.418-.157 5.1-.704 2.776-3.85 4.56-6.61 3.944-1.019-.197-1.97-.812-2.474-1.734-.68-1.31-.668-2.967.074-4.247.703-1.156 1.932-1.87 3.187-2.28z" fill="#6A6866" fill-rule="evenodd"/></svg>