<svg xmlns="http://www.w3.org/2000/svg" width="1000" height="197.295"><path d="M831.036 22.053c-66.669 0-94.84 33.709-94.84 70.13 0 46.89 45.061 68.923 95.046 68.923 57.125 0 95.701-25.582 95.701-69.44 0-40.454-32.762-69.613-95.907-69.613zm.275 26.88c26.84 0 55.07 14.96 55.07 42.354 0 25.819-24.99 42.319-54.553 42.319-30.867 0-55.035-17.802-55.035-42.044 0-22.393 22.627-42.63 54.518-42.63zM154.377 196.795h-52.933v-68.373C66.687 77.148.5.5.5.5h64.552s8.899 7.225 26.745 31.017l44.148 58.013 60.338-63.666h55.434s-65.478 61.94-99.545 100.353zM269.79 55.033l-82.915 125.44c15.047-1.323 39.94-.378 39.94-.378l17.197-26.674 75.989-3.343 20.677 34.841 49.108-.24L313.42 55.652l-43.63-.62zm14.956 34.048l21.987 37.943-46.524.206 24.537-38.149zm96.902 66.3V37.423c13.872.718 27.805.756 41.807.03v44.653h72.784l-1.103-44.702c14.206.586 28.54.596 43.008 0v118.047c-14.175-.782-29.75-.669-41.905.079v-48.06l-72.784 2.206v45.755c-14.882-.307-28.627-.265-41.807-.05zM640.117 32.598c-52.07 0-87.843 22.976-87.843 64.1 0 40.23 33.886 64.408 87.533 64.408 51.048 0 87.533-21.645 87.533-63.34 0-49.967-48.032-65.168-87.223-65.168zm-.482 26.088c25.549 0 49.211 12.28 49.211 38.321 0 26.17-23.174 37.977-48.832 37.977-25.228 0-49.04-11.94-49.04-37.977 0-23.078 17.41-38.321 48.66-38.321zM932.349 178.52l3.544-31.705c18.111.955 18.828.825 37.711.492l-3.643 30.72s-26.031-.815-37.612.493zm9.157-52.284l.59-125.44H999.5l-25.305 125.539z" fill="#6A6866"/></svg>