<svg id="Layer_1" xmlns="http://www.w3.org/2000/svg" viewBox="0 0 150 150"><style>.st0{fill:none}</style><path class="st0" d="M85.1 102H65l-.5 1.5h21.1zm8.9-1.8l-4.2-16.4h-8.1l4.8 16.4zm.8 3.3l-.3-1.5H87l.4 1.5zM68.6 83.8h-8.8l-4.2 16.4h8.1zM87.5 82h6.4L82.8 50zm-24.4 20h-7.9l-.4 1.5h7.9zm7.3-18.2l-4.9 16.4h19.1l-4.7-16.4zM81.6 82h4.1l-4.1-28.2zm26.6 21.5l-.6-1.5H96.3l.4 1.5zM73.7 33.8h2.5V10.7l-1.3-2.1-1.2 2.3zm-5 19.8L64.4 82h4.3zM71 82h8.3l-4.1-14.2zm20.6 1.8l4.2 16.4h7.9l-5.9-16.4zm-33.6 0h-5.5l-5.8 16.4h7.1zm4.6-1.8l4.7-31-10.8 31zM42 103.5h10.9l.4-1.5H42.7zm-5.5 28.1c2.4 1.7 5 3.2 7.7 4.5v-18.6h-7.7v14.1zm72.5-26.3H97.1l2.7 10.4h13.6zm-16.8 10.4H98l-2.7-10.4h-7.4l1.9 6.4h2.4zm0 25.6c4.1-1.1 8-2.5 11.8-4.3v-19.5H92.2v23.8zm-4.4 1l2.7-.6v-28.2h-2.7v28.8zm18-6.1c2.7-1.3 5.2-2.8 7.7-4.5v-14.1h-7.7v18.6z"/><path class="st0" d="M70.5 77.5l4.7-16 4.6 15.7V42.5h-9.3zm5.3-71l2.2 3.7v23.6h1.3v6.9h2.2L95.8 82H99l6.6 18.2h3.1l6.4 15c.1.2.1.3.1.5v14.6c17.1-12.5 28.2-32.6 28.2-55.4.1-37.4-30.2-68-67.6-68.4zm10.3 98.8H64l-1.9 6.4H64v4h22v-4h2zm-51.3 10.4c0-.2.1-.3.1-.5l6.6-15h3.3L51.2 82h3.4l14.3-41.3h1.7v-6.9h1.3V10.4L74 6.5C36.7 7 6.5 37.6 6.5 75c0 22.7 11.1 42.9 28.2 55.4l.1-14.7z"/><path class="st0" d="M49.8 115.7l2.7-10.4H41.2v-.1l-4.6 10.5H46zM64 142.6c3.6.6 7.3.9 11 .9 3.8 0 7.4-.3 11-.9v-25.1H64v25.1zm-1.9-37.3h-7.8l-2.7 10.4h6.2v-4h2.4zm-2.6 36.4l2.7.6v-28.8h-2.7v28.2zM72.4 35.6h5.1v5.1h-5.1zM46 137c3.8 1.8 7.7 3.2 11.8 4.3v-23.8H46V137z"/><path d="M75 3.5C35.6 3.5 3.5 35.6 3.5 75c0 24.5 12.4 46.2 31.2 59.1l1.8 1.2c2.5 1.6 5 3 7.7 4.3.6.3 1.2.5 1.8.8 3.8 1.7 7.7 3 11.8 4.1.6.1 1.2.3 1.8.4.9.2 1.8.4 2.7.5l1.8.3c3.6.6 7.3.9 11 .9 3.8 0 7.4-.3 11-.9l1.8-.3c.9-.2 1.8-.3 2.7-.5.6-.1 1.2-.3 1.8-.4 4.1-1 8-2.4 11.8-4.1.6-.3 1.2-.5 1.8-.8 2.7-1.3 5.2-2.7 7.7-4.3l1.8-1.2c18.8-12.9 31.2-34.5 31.2-59.1-.2-39.4-32.3-71.5-71.7-71.5zm1.2 7.2v23.1h-2.5V10.9l1.2-2.3 1.3 2.1zm19.6 89.5l-4.2-16.4h6.2l5.9 16.4h-7.9zm11.8 1.8l.7 1.5H96.7l-.4-1.5h11.3zm-60.9-1.8l5.8-16.4H58l-4.2 16.4h-7.1zm6.6 1.8l-.4 1.5H42l.7-1.5h10.6zm9.3-20h-6.1l10.8-31-4.7 31zm6.1-28.4V82h-4.2l4.2-28.4zM55.2 102h8l-.5 1.5h-7.9l.4-1.5zm.4-1.8l4.2-16.4h8.7l-4.9 16.4h-8zM65 102h20.2l.4 1.5h-21l.4-1.5zm16.7-18.2h8.1l4.2 16.4h-7.5l-4.8-16.4zM94.5 102l.4 1.5h-7.4L87 102h7.5zm-7-20l-4.7-32 11.1 32h-6.4zm-1.8 0h-4.2V53.8L85.7 82zm-1.1 18.2h-19l4.9-16.4h9.4l4.7 16.4zM71 82l4.3-14.2 4 14.2H71zm8.8-4.8l-4.5-15.6-4.8 15.9v-35h9.3v34.7zm-2.3-36.5h-5.1v-5.1h5.1v5.1zM6.5 75C6.5 37.6 36.7 7 74 6.5l-2.1 3.9v23.4h-1.3v6.9h-1.7L54.7 82h-3.4l-6.4 18.2h-3.3l-6.6 15c-.1.2-.1.3-.1.5v14.6C17.6 117.9 6.5 97.7 6.5 75zm37.7 61.2c-2.7-1.3-5.2-2.8-7.7-4.5v-14.1h7.7v18.6zm-7.6-20.5l4.6-10.5v.1h11.2l-2.7 10.4H36.6zm21.2 25.6c-4.1-1.1-8-2.5-11.8-4.3v-19.5h11.8v23.8zm0-29.6v4h-6.1l2.7-10.4h7.8l-1.9 6.4h-2.5zm4.4 30.6l-2.7-.6v-28.2h2.7v28.8zm23.8.3c-3.6.6-7.3.9-11 .9-3.8 0-7.4-.3-11-.9v-25.1h22v25.1zm0-30.9v4H64v-4h-1.9l1.9-6.4h22.1l1.9 6.4h-2zm4.5 30l-2.7.6v-28.8h2.7v28.2zm-.7-30l-1.9-6.4h7.4l2.7 10.4h-5.7v-4h-2.5zM104 137c-3.8 1.8-7.7 3.2-11.8 4.3v-23.8H104V137zm0-21.3h-4.2l-2.7-10.4H109l4.4 10.4H104zm9.5 15.9c-2.4 1.7-5 3.2-7.7 4.5v-18.6h7.7v14.1zm1.8-1.2v-14.6c0-.2 0-.4-.1-.5l-6.4-15h-3.1L99 82h-3.2L81.5 40.8h-2.2v-6.9H78V10.3l-2.2-3.7c37.4.4 67.7 31 67.7 68.5 0 22.6-11.1 42.8-28.2 55.3z" fill="#fff"/></svg>