<svg id="Layer_1" xmlns="http://www.w3.org/2000/svg" viewBox="0 0 150 150"><style>.st0{fill:none}</style><path class="st0" d="M64.3 104.2l8.1-5.8h-8.1zM76 96.7h9.1V94l-9.1.1zm0 32.9l9.1-6.9v-7.8H76zm9.1-39.4H76v2.2l9.1-.1zm0 34.7l-8.8 6.7 8.8 6.6zm-20.8-55H66v18.6h17V69.9h1.7v-33l1.4-29.5c-3.6-.6-7.3-.9-11.1-.9-4.2 0-8.3.4-12.3 1.1l1.5 29.3.1 33zm0 68.6l9.1-6.9-9.1-7zm10-23.6h-10v7.6l10 7.6zm1.7-1.7h9.1v-7.3L76 99.3zm10.8 8.2l8.6-6.5h-8.6zm.3-99.4l-.7 15v34.6h-1.7v16.9h4.9V71.6h-1.7V36.9zm-.3 91.2h8.5l-8.5-6.1zm0-19.2v2.7h8.9l-.2-2.8zm0-3.8v2h8.6l-.2-2zm9.1 8.2h-9.1v6.6l10.1 7.3zm-10.8 0h-7.4l7.4 5.4zm-10.8-4.3l-10 .1v2.5h10zm-11.8 29.2l-10-7.6-1.7 23.3c2.9 1.1 6 2 9.1 2.7l2.6-2v-16.4zm1.8 17.4v2c3.3.5 6.6.8 10.1.8v-10.4l-10.1 7.6z"/><path class="st0" d="M57.6 88.5V69.9h1.7v-33L60.7 8C29.8 14.6 6.5 42.1 6.5 75c0 28.6 17.7 53.2 42.6 63.4l3.7-50h4.8zm18.4 45v10c3.1 0 6.1-.3 9.1-.7v-2.4l-9.1-6.9zM88.1 7.8l1.5 29.1v33h1.7v18.6h5.5l3.9 50c25.1-10.2 42.8-34.8 42.8-63.5 0-33.3-23.9-61.1-55.4-67.2z"/><path class="st0" d="M86.8 123.6v16l3.1 2.3c3.1-.7 6.2-1.6 9.2-2.7l-1.8-23.4-10.5 7.8zm-24.3-8.7h-8.2l8.2 6.3zm-3.2-26.4h4.9V71.6h-1.7V36.9L61.8 22 61 37v34.6h-1.7zm5 4l10-.1v-2.2h-10zm0 20.7h10V99.1l-10 7.2zm-1.8-5.7l-8.1 5.7h8.1zm-8.3-14.9l8.3-.1v-2.3h-8.1zm-.3 4.1h8.6v-2.5l-8.4.1zm-1.1 15.6l9.7-6.9v-7h-8.7z"/><path d="M75 3.5C35.6 3.5 3.5 35.6 3.5 75c0 30.2 18.9 56.1 45.4 66.5.6.2 1.1.4 1.7.7 2 .7 4.1 1.4 6.2 1.9.7.2 1.4.4 2.2.5 1.2.3 2.4.5 3.6.7.6.1 1.1.2 1.7.3 3.3.5 6.6.8 10.1.8h1.7c3.1 0 6.1-.3 9.1-.7.6-.1 1.1-.2 1.7-.3 1.3-.2 2.7-.5 4-.8.7-.2 1.5-.3 2.2-.5 2.1-.6 4.2-1.2 6.3-2 .6-.2 1.1-.4 1.7-.6 26.6-10.4 45.5-36.3 45.5-66.6-.1-39.3-32.2-71.4-71.6-71.4zm14.6 68.1v16.9h-4.9V71.6h1.7V37l.7-15 .8 15v34.6h1.7zm5.8 43.3l-8.6 6.5v-6.5h8.6zm-8.6-1.7v-6.1l8.5 6.1h-8.5zm0-8.2v-6.6h9l1.1 13.9-10.1-7.3zm0-8.3V94l8.7-.1.2 2.8h-8.9zm0-4.5v-2.1h8.4l.2 2-8.6.1zM85.1 94v2.7H76v-2.6l9.1-.1zM76 92.4v-2.2h9.1v2.1l-9.1.1zm9.1 6v5.3l-7.4-5.3h7.4zm0 7.5v7.4H76v-14l9.1 6.6zm0 9v7.8l-9.1 6.9v-14.7h9.1zm0 10v13.4l-8.8-6.7 8.8-6.7zM75 6.5c3.8 0 7.5.3 11.1.9l-1.4 29.5v32.9H83v18.6H66V69.9h-1.7v-33L62.7 7.6c4-.7 8.1-1.1 12.3-1.1zm-10.7 116V115h10.1v15.1l-10.1-7.6zm9.1 9.1l-9.2 7v-13.9l9.2 6.9zm-1-33.2l-8.1 5.7v-5.7h8.1zm-8.1-1.7v-2.5l10.1-.1v2.6H64.3zm10 2.4v14.1h-10v-7l10-7.1zm0-6.7l-10.1.1v-2.3h10.1v2.2zM61 37l.7-15 .8 15v34.6h1.7v16.9h-4.9V71.6H61V37zm1.5 53.2v2.3l-8.3.1.2-2.4h8.1zm0 4v2.5h-8.6l.2-2.4 8.4-.1zm0 4.2v7l-9.8 6.9 1-13.9h8.8zm0 9.1v5.7h-8.1l8.1-5.7zm0 7.4v6.2l-8.2-6.2h8.2zM6.5 75c0-32.9 23.3-60.4 54.2-67l-1.4 28.9v32.9h-1.7v18.6h-4.8l-3.7 50C24.2 128.2 6.5 103.6 6.5 75zm44.3 64.1l1.7-23.3 10 7.6v16.5l-2.6 2c-3.1-.8-6.1-1.7-9.1-2.8zm13.5 3.6v-2l10.1-7.6v10.4c-3.5-.1-6.9-.3-10.1-.8zm11.7.8v-10l9.1 6.9v2.4c-3 .4-6 .6-9.1.7zm13.9-1.6l-3.1-2.3v-16l10.4-7.9 1.8 23.4c-2.9 1.1-6 2.1-9.1 2.8zm10.8-3.4l-3.9-50h-5.5V69.9h-1.7v-33L88.1 7.8c31.5 6.1 55.4 33.9 55.4 67.2 0 28.7-17.7 53.3-42.8 63.5z" fill="#fff"/></svg>