<svg id="Layer_1" xmlns="http://www.w3.org/2000/svg" viewBox="0 0 150 150"><style>.st0{fill:none}.st1{fill:#fff}</style><path class="st0" d="M83.2 39.5h-16c-5 0-9 3.9-9.4 8.7.2 0 .3-.1.5-.1 3.8-1 8-1.8 12.6-2h.7c.5 0 .9-.1 1.4-.1h2.4c5.7 0 10.7.6 15.3 1.7.2 0 .3.1.5.1.1 0 .1 0 .2.1l1.2.3c-.5-5-4.5-8.7-9.4-8.7zm11.1 10.8l-1.1-.3c-1.6-.5-3.6-1-6-1.4 5.4 3.3 14.9 10.2 20.8 20.3 6.4 11.1 8.3 22.6 9 28h12c-.3-3.1-1.9-13.8-7.8-24.3-6.4-11.1-15.4-18.6-26.9-22.3zM67.1 15.7v22h16.2v-22L75 7.5l-7.9 8.2zM76 32.8h-1.7V19.3H76v13.5zm-4.2 110.6c1.1 0 2.1.1 3.2.1s2.1 0 3.2-.1c10-.5 19.4-3.1 27.8-7.3H44c8.5 4.3 17.9 6.9 27.8 7.3zm-56.2-34.3c1.3 2.2 2.7 4.4 4.2 6.5v-6.5h-4.2z"/><path class="st0" d="M15.4 96.9h5c.3-3 1.7-14 7.9-25.1 4.8-8.6 13.3-18.4 27.8-23.1.1-5.5 4.1-10 9.3-10.8V15l8.1-8.5c-37.1.8-67 31.2-67 68.5 0 12.2 3.2 23.7 8.9 33.7V96.9z"/><path class="st0" d="M17.1 98.6H133v8.8H17.1zm12.7-26c-5.9 10.5-7.3 21.1-7.6 24.2h12.2c.7-5.4 2.5-16.9 9-28 6-10.2 15.5-17.1 20.9-20.4-2.4.4-4.7.9-7 1.6l-1.1.3c-11.5 3.9-20.3 11.3-26.4 22.3zm85.4 24.3c-.7-5.3-2.5-16.5-8.7-27.1-7.7-13.2-21.6-20.6-24-21.8-.9-.1-1.8-.2-2.7-.2 6.5 7.5 10.8 14.7 12.9 21.6 3 10.1 3.8 21.6 3.7 27.5h18.8z"/><path class="st0" d="M44.8 69.8c-6.2 10.6-8 21.8-8.7 27.1h18.8c-.1-5.9.7-17.5 3.7-27.5 2-6.9 6.4-14.1 12.9-21.6-.9.1-1.7.1-2.6.2-2 .9-16.3 8.3-24.1 21.8z"/><path class="st0" d="M75.4 47.6h-1.6c-7 7.7-11.6 15.2-13.6 22.2-2.9 9.9-3.8 21.2-3.6 27h38.2c.1-5.8-.7-17.1-3.6-27-2.1-7-6.7-14.5-13.6-22.2h-2.2zm27.5 70c0-1.7-1.3-3.2-3-3.4-.3 0-.6-.1-1-.1h-1.2c-1.8.2-3.2 1.7-3.2 3.5l.1 4.2h8.4l-.1-4.2z"/><path class="st0" d="M21.6 109.1v8.7c1.1 1.4 2.3 2.7 3.5 4h3.8l-.1-4.1c0-2.7 2-5 4.7-5.2.5 0 1-.1 1.4 0 .4 0 .8 0 1.1.1 2.5.3 4.5 2.5 4.5 5.1l.1 4.3h4.2l-.1-4.1c0-2.7 2-5 4.7-5.2.5 0 1-.1 1.4 0 .4 0 .8 0 1.1.1 2.5.3 4.5 2.5 4.5 5.1l.1 4.3h4.2l-.1-4.1c0-2.7 2-5 4.7-5.2.5 0 1-.1 1.4 0 .4 0 .8 0 1.1.1 2.5.3 4.5 2.5 4.5 5.1l.1 4.3h4.2l-.1-4.1c0-2.7 2-5 4.7-5.2.5 0 1-.1 1.4 0 .4 0 .8 0 1.1.1 2.5.3 4.5 2.5 4.5 5.1l.1 4.3h4.2l-.1-4.1c0-2.7 2-5 4.7-5.2.5 0 1-.1 1.4 0 .4 0 .8 0 1.1.1 2.5.3 4.5 2.5 4.5 5.1l.1 4.3h4.2l.1-4.3c0-2.6 2-4.8 4.5-5.1.4 0 .7-.1 1.1-.1h1.4c2.7.2 4.8 2.5 4.7 5.2l-.1 4.1h4.3c1.5-1.6 2.8-3.2 4.1-4.8v-7.9H21.6z"/><path class="st0" d="M115.8 114.2c-.4 0-.8-.1-1.2 0-.3 0-.7 0-1 .1-1.7.2-3 1.6-3 3.4l-.1 4.2h8.4l.1-4.2c0-1.8-1.4-3.3-3.2-3.5zM143.5 75c0-37.3-29.9-67.7-67-68.5L85 15v22.9c5.2.8 9.2 5.3 9.3 10.7 14.9 4.7 23.5 14.5 28.4 23.2 6.3 11.1 7.7 22 8 25.1h4v11.7c5.6-10 8.8-21.4 8.8-33.6zm-12.7 39.7c1.3-1.8 2.5-3.7 3.6-5.6h-3.6v5.6zm-43.9 2.9c0-1.7-1.3-3.2-3-3.4-.3 0-.6-.1-1-.1h-1.2c-1.8.2-3.2 1.7-3.2 3.5l.1 4.2H87l-.1-4.2zm-48 0c0-1.7-1.3-3.2-3-3.4-.3 0-.6-.1-1-.1h-1.2c-1.8.2-3.2 1.7-3.2 3.5l.1 4.2H39l-.1-4.2zm16 0c0-1.7-1.3-3.2-3-3.4-.3 0-.6-.1-1-.1h-1.2c-1.8.2-3.2 1.7-3.2 3.5l.1 4.2H55l-.1-4.2zm64.8 5.9h-93c4.2 4.2 9 7.8 14.2 10.8h68.2c5.2-3 9.9-6.6 14.2-10.8h-3.6zm-48.8-5.9c0-1.7-1.3-3.2-3-3.4-.3 0-.6-.1-1-.1h-1.2c-1.8.2-3.2 1.7-3.2 3.5l.1 4.2H71l-.1-4.2z"/><path class="st1" d="M75 3.5C35.6 3.5 3.5 35.6 3.5 75c0 17.3 6.1 33.1 16.4 45.5.9 1 1.8 2.1 2.7 3.1 3.8 4.1 8 7.7 12.6 10.8.9.6 1.8 1.2 2.7 1.7 5.4 3.3 11.4 5.9 17.6 7.7.9.3 1.8.5 2.7.7 1.3.3 2.7.6 4 .8.6.1 1.1.2 1.7.3 2.1.3 4.3.6 6.5.7.6 0 1.1.1 1.7.1 1 0 1.9.1 2.9.1s1.9 0 2.9-.1c.6 0 1.1-.1 1.7-.1 2.2-.1 4.4-.4 6.5-.7.6-.1 1.1-.2 1.7-.3 1.4-.2 2.7-.5 4-.8.9-.2 1.8-.5 2.7-.7 6.3-1.8 12.2-4.4 17.7-7.7.9-.6 1.8-1.1 2.7-1.7 4.6-3.1 8.9-6.7 12.6-10.8.5-.6 1-1.1 1.5-1.7l.1-.1c.6-.7 1.2-1.4 1.7-2.1 9.8-12.2 15.7-27.8 15.7-44.7 0-39.4-32.1-71.5-71.5-71.5zM57.2 50.1c2.3-.7 4.7-1.2 7-1.6-5.4 3.3-15 10.1-20.9 20.4-6.4 11.1-8.3 22.6-9 28H22.1c.3-3.1 1.8-13.7 7.6-24.2 6.2-11 15-18.4 26.3-22.2l1.2-.4zm35.6 19.2c-2-6.9-6.4-14.1-12.9-21.6.9.1 1.8.1 2.7.2 2.4 1.2 16.3 8.6 24 21.8 6.2 10.6 8 21.8 8.7 27.1H96.5c.1-5.9-.8-17.4-3.7-27.5zm-1.7.5c2.9 9.9 3.8 21.2 3.6 27H56.5c-.1-5.8.7-17.1 3.6-27 2.1-7 6.7-14.5 13.6-22.2h3.7c7.1 7.8 11.7 15.2 13.7 22.2zm-32.6-.5c-3 10.1-3.8 21.6-3.7 27.5H36c.7-5.3 2.5-16.5 8.7-27.1 7.8-13.4 22.1-20.9 24.1-21.8.9-.1 1.7-.1 2.6-.2-6.5 7.5-10.9 14.8-12.9 21.6zM133 98.6v8.8H17.1v-8.8H133zm-16-1.7c-.7-5.4-2.5-16.9-9-28-5.9-10.1-15.3-16.9-20.8-20.3 2.4.4 4.4.9 6 1.4l1.1.3c11.6 3.7 20.6 11.1 26.9 22.3 6 10.5 7.5 21.2 7.8 24.3h-12zM91.3 47.7c-.1 0-.1 0-.2-.1-.2 0-.3-.1-.5-.1-4.5-1.1-9.6-1.7-15.3-1.7h-2.4c-.5 0-.9 0-1.4.1h-.7c-4.6.3-8.8 1-12.6 2-.2 0-.3.1-.5.1.3-4.9 4.4-8.7 9.4-8.7h16c4.9 0 9 3.8 9.4 8.6-.3.1-.7 0-1.2-.2zm-8-10c-.1 0-.1 0 0 0H67.1v-22L75 7.5l8.3 8.3v21.9zM73.5 6.5L65.4 15v22.9c-5.2.9-9.2 5.4-9.3 10.8-14.6 4.7-23 14.5-27.8 23.1-6.2 11.1-7.6 22-7.9 25.1h-5v11.8C9.7 98.7 6.5 87.2 6.5 75c0-37.3 29.9-67.7 67-68.5zM15.6 109.1h4.2v6.5c-1.5-2.1-2.9-4.3-4.2-6.5zm62.6 34.3c-1.1 0-2.1.1-3.2.1s-2.1 0-3.2-.1c-10-.5-19.4-3.1-27.8-7.3h62c-8.5 4.3-17.9 6.9-27.8 7.3zm30.9-9H40.9c-5.2-3-9.9-6.6-14.2-10.8h96.6c-4.2 4.1-9 7.8-14.2 10.8zm-78.6-16.7c0-1.8 1.4-3.3 3.2-3.5.4 0 .8-.1 1.2 0 .3 0 .7 0 1 .1 1.7.2 3 1.6 3 3.4l.1 4.2h-8.4l-.1-4.2zm16 0c0-1.8 1.4-3.3 3.2-3.5.4 0 .8-.1 1.2 0 .3 0 .7 0 1 .1 1.7.2 3 1.6 3 3.4l.1 4.2h-8.4l-.1-4.2zm16 0c0-1.8 1.4-3.3 3.2-3.5.4 0 .8-.1 1.2 0 .3 0 .7 0 1 .1 1.7.2 3 1.6 3 3.4l.1 4.2h-8.4l-.1-4.2zm16 0c0-1.8 1.4-3.3 3.2-3.5.4 0 .8-.1 1.2 0 .3 0 .7 0 1 .1 1.7.2 3 1.6 3 3.4l.1 4.2h-8.4l-.1-4.2zm16 0c0-1.8 1.4-3.3 3.2-3.5.4 0 .8-.1 1.2 0 .3 0 .7 0 1 .1 1.7.2 3 1.6 3 3.4l.1 4.2h-8.4l-.1-4.2zm16 4.1l.1-4.2c0-1.7 1.3-3.2 3-3.4.3 0 .6-.1 1-.1h1.2c1.8.2 3.2 1.7 3.2 3.5l-.1 4.2h-8.4zm14.4 0h-4.3l.1-4.1c0-2.7-2-5-4.7-5.2-.5 0-1-.1-1.4 0-.4 0-.8 0-1.1.1-2.5.3-4.5 2.5-4.5 5.1l-.1 4.3h-4.2l-.1-4.3c0-2.6-2-4.8-4.5-5.1-.4 0-.7-.1-1.1-.1h-1.4c-2.7.2-4.8 2.5-4.7 5.2l.1 4.1h-4.2l-.1-4.3c0-2.6-2-4.8-4.5-5.1-.4 0-.7-.1-1.1-.1h-1.4c-2.7.2-4.8 2.5-4.7 5.2l.1 4.1h-4.2l-.1-4.3c0-2.6-2-4.8-4.5-5.1-.4 0-.7-.1-1.1-.1h-1.4c-2.7.2-4.8 2.5-4.7 5.2l.1 4.1H57l-.1-4.3c0-2.6-2-4.8-4.5-5.1-.4 0-.7-.1-1.1-.1h-1.4c-2.7.2-4.8 2.5-4.7 5.2l.1 4.1h-4.2l-.1-4.3c0-2.6-2-4.8-4.5-5.1-.4 0-.7-.1-1.1-.1H34c-2.7.2-4.8 2.5-4.7 5.2l.1 4.1h-3.8c-1.2-1.3-2.4-2.6-3.5-4v-8.7h107.5v7.9c-1.8 2.5-3.2 4.1-4.7 5.6zm5.9-7.1v-5.6h3.6c-1.1 1.9-2.3 3.8-3.6 5.6zm-.1-17.8c-.3-3-1.8-14-8-25.1-4.9-8.7-13.5-18.5-28.4-23.2-.1-5.4-4.1-9.8-9.3-10.7V15l-8.5-8.5c37.1.8 67 31.2 67 68.5 0 12.2-3.2 23.6-8.8 33.5V96.9h-4z"/><path class="st1" d="M74.3 19.3H76v13.6h-1.7z"/></svg>