<svg id="Layer_1" xmlns="http://www.w3.org/2000/svg" viewBox="0 0 150 150"><style>.st0{fill:none}.st1{fill:#fff}</style><path class="st0" d="M81.3 69.8h2.2v10.5h-2.2zm-11.8 0h2.1v10.5h-2.1zm6.9-51.6L72.7 68h7.5zm21 51.6h2.3v10.5h-2.3zM77.1 97.7H106l-3.3-7.4H77.1zm12.2-27.9h2.2v10.5h-2.2zm4 0h2.3v10.5h-2.3zm-28 0h2.4v10.5h-2.4zM38 99.5h7.4v7.2H38zm23.1-29.7h2.4v10.5h-2.4zm-4 0h2.1v10.5h-2.1zm-3.9 0h2.1v10.5h-2.1zm-8.7 27.9l3.3-7.4H34.1l-3.2 7.4h5.3zm30.8 0v-7.4H49.8l-3.3 7.4zm10-27.9h2.2v10.5h-2.2zm-8.1 0h2.2v10.5h-2.2zm-3.9 0h2.1v10.5h-2.1zM54 82.1h44.8v6.4H54zm8.1 17.4h13.4v7.2H62.1zm30.2 0h13.4v7.2H92.3zm24.3-1.8h5l-2.9-7.4h-14l3.3 7.4zm-9.1 1.8h7.2v7.2h-7.2zm-30.2 0h13.2v7.2H77.3zm-30 0h13.1v7.2H47.3zm2.2-29.7h1.9v10.5h-1.9zm52 0h2v10.5h-2zm3.8 0h2.1v10.5h-2.1zm-60 0h2.3v10.5h-2.3z"/><path class="st1" d="M77.4 7.8l-.1-1.5h-1.8l-.1 1.5h.8c.4-.1.8 0 1.2 0z"/><path class="st0" d="M77.3 135.9h13.2v7.2H77.3zm0-18.2h13.2v7.2H77.3zm25.4 9H77.1v7.4H106zm-9.4-56.9h2.3v10.5h-2.3zm28.3 46.1l-2.9-7.4h-14l3.3 7.4h8.6zm-14.1 1.8h7.2v7.2h-7.2zm-4.8-9.2H77.1v7.4H106zm4.8-9h7.2v7.2h-7.2zm-15.2 18.2h13.4v7.2H92.3zm29.3-20l-2.9-7.4h-14l3.3 7.4h8.6zm-29.3 1.8h13.4v7.2H92.3zm-3-29.7h2.2v10.5h-2.2zm-12 29.7h13.2v7.2H77.3zm4-29.7h2.2v10.5h-2.2zm-24.2 0h2.1v10.5h-2.1zM54 82.1h44.8v6.4H54zm7.1-12.3h2.4v10.5h-2.4zm-16.6 64.3l3.3-7.4H34.1l-1.1 2.6c2.1 1.7 4.3 3.3 6.6 4.8h4.9zm40.8-64.3h2.2v10.5h-2.2zm-20 0h2.4v10.5h-2.4zm35.3 20.5H77.1v7.4H106l-3.3-7.4zM73.3 69.8h2.1v10.5h-2.1zm3.1-51.6L72.7 68h7.5zm-6.9 51.6h2.1v10.5h-2.1zm7.7 0h2.2v10.5h-2.2z"/><path class="st0" d="M7.7 76.2c0 20.7 9.2 39.3 23.8 51.8l1.4-3.2h3.3v-7.2h-8.1l4.7-11h3.3v-7.2H28l4.7-11H52V82h-8.6V68h27.3l4.5-60.2C38 8.2 7.7 38.7 7.7 76.2zm93.8-6.4h2v10.5h-2zm-26-63.6l-.1 1.5h2l-.1-1.5h-1.8z"/><path class="st0" d="M77.4 7.8L82 68h27.3v14.1h-8.7v6.4h19.3l4.3 11h-7.7v7.2h3.3l4.3 11h-7.7v7.2h3.3l1.2 3c14.4-12.6 23.6-31.1 23.6-51.7.2-37.3-29.9-67.8-67.1-68.4zm39.2 118.9h-11.8l3.3 7.4h4.8c2.4-1.5 4.6-3.1 6.8-4.9l-1-2.5h-2.1zm-24.3 9.2v6.9c4.7-1.1 9.2-2.7 13.4-4.8v-2.2H92.3zm-32 0h-13v2.4c4.1 1.9 8.5 3.5 13.1 4.6v-7z"/><path class="st0" d="M97.4 69.8h2.3v10.5h-2.3zM38 117.7h7.4v7.2H38zm67.3-47.9h2.1v10.5h-2.1zm-55.8 0h1.9v10.5h-1.9zm-4.2 0h2.3v10.5h-2.3zm16.8 29.7h13.4v7.2H62.1zm0 36.4h13.4v7.2H62.1zm-14.8-18.2h13.1v7.2H47.3zm0-18.2h13.1v7.2H47.3zm14.8 18.2h13.4v7.2H62.1zm13.2-1.8v-7.4H49.8l-3.3 7.4zm0 10.8H49.8l-3.3 7.4h28.8zm-41.2-18.2l-3.2 7.4h13.6l3.3-7.4H36.2zm15.7-18.2l-3.3 7.4h28.8v-7.4H52.2zm-18.9 7.4h13.6l3.3-7.4H34.1zm7.1 1.8h7.4v7.2H38zm15.2-29.7h2.1v10.5h-2.1z"/><path class="st1" d="M76.2 4.7C36.8 4.7 4.7 36.8 4.7 76.2c0 21.9 9.9 41.6 25.6 54.7l1.5 1.2c.8.7 1.7 1.3 2.5 1.9 1.2.9 2.5 1.8 3.8 2.6 2.4 1.5 4.9 2.9 7.4 4.1.6.3 1.2.5 1.8.8l3.6 1.5c1.8.7 3.6 1.3 5.4 1.8 6.1 1.8 12.5 2.8 19.1 2.8h1.8c6.6-.1 13-1.1 19.1-2.8 1.8-.5 3.6-1.1 5.4-1.8 1.4-.5 2.8-1.1 4.2-1.7.6-.3 1.2-.5 1.8-.8 2.5-1.2 4.9-2.6 7.2-4.1 1.2-.8 2.3-1.5 3.4-2.3.9-.6 1.8-1.3 2.6-2l1.5-1.2c15.5-13.1 25.4-32.7 25.4-54.6-.1-39.5-32.2-71.6-71.6-71.6zM32.9 129.3l1.1-2.6h13.7l-3.3 7.4h-5c-2.2-1.5-4.4-3.1-6.5-4.8zm65.9-47.2v6.4H54v-6.4h44.8zm-41.7-1.8V69.8h2.1v10.5h-2.1zm4 0V69.8h2.4v10.5h-2.4zm4.2 0V69.8h2.4v10.5h-2.4zm4.2 0V69.8h2.1v10.5h-2.1zM72.7 68l3.7-49.8L80.2 68h-7.5zm6.8 1.8v10.5h-2.2V69.8h2.2zm-4.1 0v10.5h-2.1V69.8h2.1zm5.9 10.5V69.8h2.2v10.5h-2.2zm4 0V69.8h2.2v10.5h-2.2zm4 0V69.8h2.2v10.5h-2.2zm4 0V69.8h2.3v10.5h-2.3zm14.7 35.6l-3.3-7.4h13.9l2.9 7.4H108zm6.8 1.8v7.2h-7.2v-7.2h7.2zm-24.3 25.4H77.3v-7.2h13.2v7.2zm-13.4-9v-7.4h25.6l3.3 7.4H77.1zm.2-9.2v-7.2h13.2v7.2H77.3zm15 0v-7.2h13.4v7.2H92.3zm-15.2-9v-7.4h25.6l3.3 7.4H77.1zm.2-9.2v-7.2h13.2v7.2H77.3zm15 0v-7.2h13.4v7.2H92.3zm15.2 0v-7.2h7.2v7.2h-7.2zm.5-9l-3.3-7.4h14l2.9 7.4H108zm-2 0H77.1v-7.4h25.7l3.2 7.4zm-6.3-17.4h-2.3V69.8h2.3v10.5zm-53.2 53.8l3.3-7.4h25.5v7.4H46.5zm28.8-25.6v7.4H46.5l3.3-7.4h25.5zm-28-1.8v-7.2h13.1v7.2H47.3zm28.2 11v7.2H62.1v-7.2h13.4zm-28.2 0h13.1v7.2H47.3v-7.2zm14.8 18.2h13.4v7.2H62.1v-7.2zm13.4-29.2H62.1v-7.2h13.4v7.2zM55.3 80.3h-2.1V69.8h2.1v10.5zm20 10v7.4H46.5l3.3-7.4h25.5zm-30.8 7.4H30.9l3.2-7.4h13.8l-3.4 7.4zm.9 1.8v7.2H38v-7.2h7.4zm2.4 9l-3.3 7.4H30.9l3.2-7.4h13.7zm-2.4 9.2v7.2H38v-7.2h7.4zm1.9 20.6v-2.4h13.1v7c-4.6-1.1-9-2.7-13.1-4.6zm45 4.5v-6.9h13.4v2.2c-4.2 2-8.7 3.6-13.4 4.7zm20.6-8.7H108l-3.3-7.4h13.9l1 2.5c-2.1 1.7-4.4 3.3-6.7 4.9zm8.2-6.2l-1.2-3h-3.3v-7.2h7.7l-4.3-11h-3.3v-7.2h7.7l-4.3-11h-19.3v-6.4h8.7V68H82L77.4 7.8h-2L70.9 68H43.5v14.1h8.6v6.4H32.9l-4.7 11h8.1v7.2H33l-4.7 11h8.1v7.2h-3.3l-1.4 3.2c-14.8-12.6-24-31.2-24-51.9 0-37.5 30.3-68 67.7-68.5l.1-1.5h1.8l.1 1.5c37.2.6 67.3 31.1 67.3 68.5 0 20.6-9.2 39.1-23.6 51.7zm-19.6-47.6V69.8h2v10.5h-2zm3.8 0V69.8h2.1v10.5h-2.1zM51.4 69.8v10.5h-1.9V69.8h1.9zm-3.7 0v10.5h-2.3V69.8h2.3z"/></svg>