<svg id="Layer_1" xmlns="http://www.w3.org/2000/svg" viewBox="0 0 150 150"><style>.st0{fill:none}.st1{fill:#fff}</style><path class="st0" d="M60.4 68.4l-2.1-7.6c-3.9 4.1-6.4 9.5-6.5 15.6 2.2-3.3 5.2-6 8.6-8zm-5.1-7.6v.7c1.5-1.9 3.3-3.6 5.3-5l-1.9-6.7c-2.1 3.1-3.4 6.9-3.4 11zm10.6 5l-5.1-2.6 1.2 4.2c1.2-.5 2.5-1.1 3.9-1.6zm10.2-1.4c1.9.1 3.8.3 5.6.8l-1.5-6.3-4.1 5.5zm-2.2 0l-4.1-5.6-1.5 6.3c1.8-.4 3.7-.7 5.6-.7zm17.9-3.7l-2.1 7.6c3.4 2 6.3 4.7 8.5 7.9v-.3c-.2-5.9-2.6-11.2-6.4-15.2zm-.1-10.3l-1.8 6.4c1.8 1.3 3.4 2.9 4.7 4.6V60c-.1-3.5-1.2-6.8-2.9-9.6zm-54.5 81.5c1.8 1.2 3.7 2.3 5.6 3.3v-23.3h-5.6v20z"/><path class="st0" d="M42.8 108.9c0-5.1 1.2-10.2 3.6-14.7v-1.3c0-5 1.3-9.7 3.6-13.8v-2.2c0-4.7 1.3-9.1 3.6-12.9v-3.1c0-9.2 5.8-17 14-20v-3.6c0-3 1.8-5.5 4.3-6.7L74 6.2c-37.4.5-67.6 31-67.6 68.5 0 23.1 11.5 43.6 29.2 56v-20.5h7.3l-.1-1.3z"/><path class="st0" d="M75 31.4c-3.1 0-5.7 2.6-5.7 5.7v3.1c1.8-.5 3.7-.8 5.7-.8s3.9.3 5.7.8v-3.3c-.1-3.1-2.6-5.5-5.7-5.5zm-8.4 97.5h4.5v4.5h-4.5zM75 41.2c-6.4 0-12 3-15.6 7.7l7.5 3.2 2.4-8.8 5.9 7.5 6-7.5 2.4 9.1 7.2-3.3c-3.6-4.8-9.3-7.9-15.8-7.9zm-.8 35.6L70 71.4l-1.7 6.1c1.9-.4 3.9-.7 5.9-.7zm2.1 0c1.9.1 3.7.3 5.6.7l-1.5-6.1-4.1 5.4zm13-13.5l-5.1 2.6c1.4.5 2.7 1 3.9 1.7l1.2-4.3zm.3 12.6l-5.1 2.4c1.4.4 2.7.9 4 1.5l1.1-3.9zM75 29.7c.5 0 1 0 1.4.1L75 14.3l-1.4 15.5c.5 0 .9-.1 1.4-.1zm-9.2 48.4L61 75.9l1 3.6c1.2-.5 2.5-1 3.8-1.4zm18.8-24.3c1.3.6 2.6 1.2 3.8 2l1.2-4.3-5 2.3z"/><path class="st0" d="M76.5 51.9c1.9.1 3.7.4 5.5.9L80.5 47l-4 4.9zm-8 .9c1.8-.5 3.6-.8 5.5-.8l-3.9-5-1.6 5.8zM61 51.4l1.1 4.1c1.2-.8 2.6-1.4 3.9-1.9l-5-2.2zm5.7 13l2.3-9.5 6 8.1 6-8.2 2.3 9.6 8.1-4.1c-4.2-4.2-10-6.7-16.4-6.7-6.4 0-12.1 2.6-16.3 6.7l8 4.1zm35 26.8C100.8 77 89.2 66 75 66S49.1 77.1 48.2 91.1c3.1-4.7 7.3-8.4 12.2-10.9l-2.1-7.5 8.4 3.9 2.6-9.1 5.9 7.8 6-7.9 2.2 9.3 8.7-4-2.1 7.9c4.7 2.4 8.7 6.1 11.7 10.6z"/><path class="st0" d="M76.2 89.7c2.1.1 4.1.5 6 1.2l-1.6-7.1-4.4 5.9zM91.3 97c1.2 1.4 2.2 2.9 3 4.5l3.7-4.2-6.7-.3zm-.5-8.3l-6.4 3.1c1.8.8 3.4 1.9 4.8 3.2l1.6-6.3zm-23 2.3c1.9-.7 3.9-1.2 6-1.3l-4.4-5.9-1.6 7.2zm-8.7-2.3l1.4 7c1.5-1.5 3.2-2.7 5.1-3.7l-6.5-3.3zm-6.9 8.8l3.9 4.4c.7-1.5 1.6-3 2.7-4.3l-6.6-.1zM76 6.2l2.2 24.2c2.4 1.1 4.1 3.6 4.2 6.4v3.9c7.9 3 13.6 10.4 13.9 19.3v3.9c2.1 3.5 3.4 7.6 3.6 12v3c2.1 3.8 3.4 8.2 3.6 12.9v2.3c2.2 4.2 3.4 8.8 3.6 13.6v2.5h7.2v20.5c17.6-12.4 29.2-32.9 29.2-56-.1-37.4-30.3-67.9-67.5-68.5z"/><path class="st0" d="M105.3 107.7c-.2-4.7-1.4-9.2-3.6-13.3-5.3-9.9-15.6-16-26.8-16-11.2 0-21.4 6.1-26.7 15.9-2.4 4.4-3.7 9.4-3.7 14.5V136c3.1 1.5 6.3 2.8 9.7 3.9v-29.2c0-2.5.4-4.9 1.2-7.1l-7-8 10.4.2-2.1-10.4 9.5 4.9 2.2-10.6 6.5 8.7 6.5-8.7L83.7 90l9.5-4.6-2.4 9.8 10.6.6-6.5 7.4c.8 2.1 1.3 4.3 1.3 6.7v29.7c3.1-1 6.1-2.3 9-3.7V111l.1-3.3zm1.8 27.4c1.9-1 3.7-2.1 5.4-3.3v-20h-5.4v23.3z"/><path class="st0" d="M66.6 105.6h4.5v4.5h-4.5zm12.3 23.3h4.5v4.5h-4.5zm0-11.6h4.5v4.5h-4.5z"/><path class="st0" d="M88.8 96.9c-3.5-3.4-8.3-5.5-13.6-5.5-10.7 0-19.4 8.7-19.4 19.4v29.8c6 1.7 12.4 2.7 19 2.7 6.9 0 13.5-1 19.8-2.9v-30.2c-.2-5.3-2.4-10-5.8-13.3zm-16 38.2h-8v-8h8v8zm0-11.6h-8v-8h8v8zm0-11.6h-8v-8h8v8zm12.3 23.2h-8v-8h8v8zm0-11.6h-8v-8h8v8zm0-11.6h-8v-8h8v8z"/><path class="st0" d="M78.9 105.6h4.5v4.5h-4.5zm-12.3 11.7h4.5v4.5h-4.5z"/><path class="st1" d="M74.9 3.2C35.4 3.2 3.4 35.3 3.4 74.7c0 24.9 12.8 46.9 32.2 59.7.6.4 1.1.7 1.7 1.1 1.8 1.1 3.7 2.2 5.6 3.1.6.3 1.1.6 1.7.8 3.1 1.5 6.3 2.7 9.7 3.7.6.2 1.1.3 1.7.5 2.9.8 5.9 1.4 9 1.9 2.6.4 5.3.6 8 .7.7 0 1.4.1 2 .1.8 0 1.5 0 2.3-.1 2.7-.1 5.3-.3 8-.7 3.3-.5 6.4-1.2 9.5-2.1.6-.2 1.1-.3 1.7-.5 3.1-1 6.1-2.2 9-3.5.6-.3 1.1-.6 1.7-.8 1.9-.9 3.7-2 5.4-3.1.6-.4 1.1-.7 1.7-1.1 19.4-12.8 32.2-34.8 32.2-59.7-.1-39.4-32.2-71.5-71.6-71.5zm.1 11.1l1.4 15.5c-.5-.1-.9-.1-1.4-.1-.5 0-.9 0-1.4.1L75 14.3zm8.5 62.5l-2.2-9.3-6 7.9-5.9-7.8-2.6 9.1-8.4-3.9 2.1 7.5c-4.9 2.5-9.1 6.2-12.2 10.9C49.1 77.2 60.7 66 75 66c14.3 0 25.9 11 26.8 25.1-3-4.5-7-8.1-11.7-10.6l2.2-7.8-8.8 4.1zm6.1-.9l-1.1 3.9c-1.3-.6-2.6-1.1-4-1.5l5.1-2.4zm-7.7 1.6c-1.8-.4-3.7-.6-5.6-.7l4.1-5.4 1.5 6.1zm-7.7-.7c-2 0-4 .3-5.9.7l1.7-6.1 4.2 5.4zm-8.4 1.3c-1.3.4-2.6.8-3.8 1.4l-1-3.6 4.8 2.2zM75 53.6c6.4 0 12.2 2.6 16.4 6.7l-8.1 4.1-2.3-9.6-6 8.2-6-8.1-2.3 9.5-8.1-4c4.2-4.2 10-6.8 16.4-6.8zm-14-2.2l5.1 2.1c-1.4.5-2.7 1.2-3.9 1.9l-1.2-4zm7.5 1.4l1.6-5.8 3.9 5c-1.9 0-3.8.3-5.5.8zm8-.9l3.9-5 1.5 5.9c-1.7-.4-3.5-.7-5.4-.9zm8.1 1.9l5-2.3-1.2 4.3c-1.2-.8-2.5-1.5-3.8-2zm4.7 9.5l-1.2 4.2c-1.3-.7-2.6-1.2-3.9-1.7l5.1-2.5zm-7.6 1.8c-1.8-.4-3.7-.7-5.6-.8l4.1-5.6 1.5 6.4zm-7.8-.7c-1.9.1-3.8.3-5.6.8l1.5-6.3 4.1 5.5zm-8 1.4c-1.4.5-2.7 1-4 1.7l-1.2-4.2 5.2 2.5zm-10.6-4.3v-.7c0-4.1 1.3-7.9 3.4-11l1.9 6.7c-2 1.4-3.8 3.1-5.3 5zm2.9-.8l2.1 7.6c-3.4 2-6.3 4.7-8.6 8 .2-6 2.6-11.5 6.5-15.6zm31.4 7.7l2.1-7.6c3.8 4 6.2 9.3 6.4 15.2v.3c-2.2-3.2-5.1-5.9-8.5-7.9zm.3-11.6l1.8-6.4c1.7 2.8 2.8 6.1 2.9 9.6v1.4c-1.4-1.7-3-3.3-4.7-4.6zm-6.3-4.5l-2.4-9.1-6 7.5-5.9-7.5-2.4 8.8-7.5-3.2c3.6-4.7 9.3-7.7 15.6-7.7 6.5 0 12.2 3.1 15.8 7.9l-7.2 3.3zM75 39.4c-2 0-3.9.3-5.7.8v-3.1c0-3.1 2.6-5.7 5.7-5.7s5.6 2.4 5.7 5.5v3.3c-1.8-.5-3.7-.8-5.7-.8zm-39.5 70.8v20.5c-17.6-12.4-29.2-32.9-29.2-56 0-37.5 30.3-68 67.6-68.5l-2.2 24.2c-2.5 1.2-4.3 3.7-4.3 6.7v3.6c-8.1 3-14 10.9-14 20v3.1c-2.3 3.8-3.6 8.2-3.6 12.9v2.2c-2.3 4.1-3.6 8.8-3.6 13.8V94c-2.3 4.5-3.6 9.6-3.6 14.7v1.3h-7.1zm7.3 25c-1.9-1-3.8-2.1-5.6-3.3v-20h5.6v23.3zm32.1 8c-6.6 0-12.9-1-19-2.7v-29.8c0-10.7 8.7-19.4 19.4-19.4 5.3 0 10 2.1 13.5 5.5 3.4 3.4 5.6 8 5.8 13.2v30.2c-6.2 2-12.9 3-19.7 3zM52.2 97.5l6.6.1c-1.1 1.3-2 2.8-2.7 4.3l-3.9-4.4zm6.9-8.8l6.5 3.3c-1.9 1-3.6 2.2-5.1 3.7l-1.4-7zm8.7 2.3l1.5-7.2 4.4 5.9c-2 .2-4 .6-5.9 1.3zm8.4-1.3l4.4-5.9 1.6 7.1c-1.8-.7-3.9-1.1-6-1.2zm8.2 2l6.4-3.1-1.5 6.4c-1.5-1.3-3.1-2.4-4.9-3.3zm9.8 9.8c-.8-1.6-1.8-3.2-3-4.5l6.6.4-3.6 4.1zm11.2 34.5c-2.9 1.4-5.9 2.7-9 3.7V110c-.1-2.4-.6-4.6-1.3-6.7l6.5-7.4-10.6-.6 2.4-9.8-9.5 4.6-2.3-10.3-6.6 8.7-6.5-8.7-2.2 10.6-9.5-4.9 2.1 10.4-10.4-.2 7 8c-.8 2.2-1.2 4.6-1.2 7.1V140c-3.3-1.1-6.6-2.4-9.7-3.9v-27.2c0-5.1 1.3-10.1 3.7-14.5 5.3-9.8 15.6-15.9 26.7-15.9 11.2 0 21.5 6.1 26.8 16 2.2 4.1 3.4 8.6 3.6 13.3V136zm7.1-4.1c-1.8 1.2-3.6 2.3-5.4 3.3V112h5.4v19.9zm1.7-1.2v-20.5H107v-2.5c-.2-4.8-1.4-9.4-3.6-13.6v-2.3c-.2-4.7-1.4-9.1-3.6-12.9v-3c-.2-4.4-1.4-8.5-3.6-12V60c-.3-8.9-6-16.3-13.9-19.2v-3.9c-.1-2.9-1.8-5.3-4.2-6.4L76 6.2c37.3.6 67.4 31.1 67.4 68.5 0 23.1-11.6 43.6-29.2 56z"/><path class="st1" d="M77.2 111.9h8v-8h-8v8zm1.7-6.3h4.5v4.5h-4.5v-4.5zm-1.7 17.9h8v-8h-8v8zm1.7-6.2h4.5v4.5h-4.5v-4.5zm-1.7 17.8h8v-8h-8v8zm1.7-6.2h4.5v4.5h-4.5v-4.5zm-14-17h8v-8h-8v8zm1.7-6.3h4.5v4.5h-4.5v-4.5zm-1.7 17.9h8v-8h-8v8zm1.7-6.2h4.5v4.5h-4.5v-4.5zm-1.7 17.8h8v-8h-8v8zm1.7-6.2h4.5v4.5h-4.5v-4.5z"/></svg>