<svg xmlns="http://www.w3.org/2000/svg" viewBox="0 0 755.5 143.9"><path d="M73.7 143.6l.3-.1c.2-.1.3-.2.5-.3.3-.2.5-.4.7-.6l67.3-67.3c1.8-1.8 1.8-4.7 0-6.5l-22.4-22.4-22.4-22.6L75.2 1.4c-.2-.2-.5-.4-.7-.6-.2-.1-.3-.2-.5-.3l-.3-.2c-.2-.1-.4-.1-.6-.2-.1 0-.2-.1-.2-.1-.6-.1-1.2-.1-1.8 0-.1 0-.1 0-.2.1-.2.1-.4.1-.7.2l-.3.1c-.2.1-.4.2-.5.3-.3.2-.5.4-.7.6L1.4 68.7c-1.8 1.8-1.8 4.7 0 6.5l67.3 67.3c.2.2.5.4.7.6.2.1.4.2.5.3l.3.1c.2.1.4.1.7.2l.2.1c.6.1 1.2.1 1.8 0l.2-.1c.2 0 .4 0 .6-.1zM95.2 34.4l14.4 14.4c.4.4.4 1.1 0 1.5L95.2 64.7c-.4.4-1.1.4-1.5 0L79.3 50.3c-.4-.4-.4-1.1 0-1.5l14.4-14.4c.4-.4 1-.4 1.5 0zM72.7 11.9l14.4 14.4c.4.4.4 1.1 0 1.5L68.7 46.2c-1.8 1.8-1.8 4.7 0 6.5l22.4 22.4c1.8 1.8 4.7 1.8 6.5 0L116 56.7c.4-.4 1.1-.4 1.5 0L132 71.2c.4.4.4 1.1 0 1.5L72.7 132c-.4.4-1.1.4-1.5 0l-14.4-14.4c-.4-.4-.4-1.1 0-1.5l18.4-18.4c1.8-1.8 1.8-4.7 0-6.5L52.8 68.7c-1.8-1.8-4.7-1.8-6.5 0L27.8 87.1c-.4.4-1.1.4-1.5 0L11.9 72.7c-.4-.4-.4-1.1 0-1.5l18.4-18.4 40.9-40.9c.4-.4 1.1-.4 1.5 0zm-24 97.7L34.4 95.2c-.4-.4-.4-1.1 0-1.5l14.4-14.4c.4-.4 1.1-.4 1.5 0l14.4 14.4c.4.4.4 1.1 0 1.5l-14.4 14.4c-.4.4-1.1.4-1.6 0 .1 0 .1 0 0 0z" fill="#55c63a"/><path d="M183 45.3c0-.8.7-1.5 1.6-1.6h9.8c.9 0 1.6.7 1.6 1.6V66h23.4V45.3c0-.9.7-1.6 1.6-1.6h9.8c.8 0 1.5.7 1.6 1.6v54.3c0 .8-.7 1.5-1.6 1.6H221c-.9 0-1.6-.7-1.6-1.6V78.1h-23.5v21.6c0 .9-.7 1.6-1.6 1.6h-9.8c-.8-.1-1.5-.7-1.5-1.6V45.3zm62 0c0-.8.7-1.5 1.6-1.6h9.8c.9 0 1.6.7 1.6 1.6v54.3c0 .8-.7 1.5-1.6 1.6h-9.8c-.9 0-1.6-.7-1.6-1.6V45.3zm25.8 0c0-.9.7-1.6 1.6-1.6h24.5c9.8 0 17.8 7.9 17.9 17.7 0 7.6-5 13.6-12.1 16.5l11.2 20.8c.5.7.2 1.7-.5 2.1-.3.2-.6.3-.9.2h-10.9c-.5 0-1-.3-1.3-.7l-10.9-21.7h-5.7v20.9c0 .8-.7 1.5-1.6 1.6h-9.8c-.9 0-1.6-.7-1.6-1.6V45.3zm25 23c3.5-.2 6.2-3.1 6.2-6.6 0-3.4-2.8-6.2-6.2-6.2h-12.1v12.8h12.1zm26.1-23c0-.9.7-1.6 1.6-1.6h34c.9 0 1.5.7 1.5 1.6v8.9c0 .9-.7 1.6-1.5 1.6h-22.7V66h18.7c.9 0 1.6.7 1.6 1.6v8.9c0 .9-.7 1.6-1.6 1.6h-18.7v11.1h22.7c.9 0 1.5.7 1.5 1.6v8.9c0 .9-.7 1.6-1.5 1.6h-34c-.9 0-1.6-.7-1.6-1.6V45.3zm59.8 53.8l25.7-55.2c.3-.5.8-.9 1.4-.9h.8c.6 0 1.1.4 1.4.9l25.7 55.2c.4.7.1 1.6-.6 2-.3.1-.5.2-.8.2h-9.1c-1.5 0-2.1-.5-2.9-2l-3-6.5H398l-3 6.6c-.5 1.2-1.7 2.1-3 2h-9c-.8.1-1.5-.5-1.6-1.3 0-.4.1-.8.3-1zm33.7-17.6L409.1 68h-.1l-6.2 13.5h12.6zm47.7-36.2c0-.8.7-1.5 1.6-1.6h9.8c.9 0 1.6.7 1.6 1.6V66h23.5V45.3c0-.9.7-1.6 1.6-1.6h9.8c.8 0 1.5.7 1.6 1.6v54.3c0 .8-.7 1.5-1.6 1.6h-10c-.9 0-1.6-.7-1.6-1.6V78.1h-23.5v21.6c0 .9-.7 1.6-1.6 1.6h-9.8c-.8 0-1.5-.7-1.6-1.6V45.3zm62.1 0c0-.9.7-1.6 1.6-1.6h34c.9 0 1.6.7 1.6 1.6v8.9c0 .9-.7 1.6-1.6 1.6H538V66h18.7c.8 0 1.5.7 1.6 1.6v8.9c0 .9-.7 1.6-1.6 1.6H538v11.1h22.7c.9 0 1.6.7 1.6 1.6v8.9c0 .9-.7 1.6-1.6 1.6h-34c-.9 0-1.6-.7-1.6-1.6l.1-54.4zm45.8 0c0-.9.7-1.6 1.6-1.6h9.8c.8 0 1.5.7 1.5 1.6v43.8h19.5c.9 0 1.5.7 1.6 1.5v8.9c0 .9-.7 1.6-1.5 1.6h-30.9c-.8 0-1.5-.7-1.5-1.6V45.3zm46.8 0c0-.9.7-1.6 1.6-1.6h19.8c10.1-.3 18.5 7.7 18.8 17.8s-7.7 18.5-17.8 18.8h-9.5v19.3c0 .9-.7 1.5-1.6 1.6h-9.7c-.9 0-1.6-.7-1.6-1.6V45.3zm20.6 23c3.6 0 6.5-2.8 6.5-6.4v-.1c-.1-3.5-3-6.2-6.4-6.1h-7.8v12.6h7.7zm27.1-23c0-.9.7-1.6 1.5-1.6h34c.9 0 1.5.7 1.6 1.5v8.9c0 .9-.7 1.6-1.5 1.6h-22.8V66H697c.8 0 1.5.7 1.6 1.6v8.9c0 .9-.7 1.6-1.5 1.6h-18.7v11.1H701c.9 0 1.5.7 1.6 1.5v8.9c0 .9-.7 1.6-1.5 1.6h-34c-.9 0-1.6-.7-1.6-1.6V45.3zm46 0c0-.9.7-1.6 1.6-1.6h24.5c9.8 0 17.8 7.9 17.9 17.7 0 7.6-5 13.6-12.1 16.5l11.2 20.8c.5.7.2 1.7-.5 2.1-.3.2-.6.3-.9.2h-10.9c-.5 0-1-.3-1.3-.7l-11-21.6h-5.7v20.9c0 .8-.7 1.5-1.6 1.6h-9.8c-.9 0-1.6-.7-1.6-1.6V45.3zm25 23c3.5-.2 6.2-3.1 6.2-6.6 0-3.4-2.8-6.2-6.2-6.2h-12.1v12.8h12.1z" fill="#333f48"/></svg>